<?xml version="1.0" encoding="UTF-8" standalone="no"?>
<!DOCTYPE svg PUBLIC "-//W3C//DTD SVG 1.1//EN"
 "http://www.w3.org/Graphics/SVG/1.1/DTD/svg11.dtd">
<!-- Generated by graphviz version 2.40.1 (20161225.0304)
 -->
<!-- Title: dependencies Pages: 1 -->
<svg width="1082pt" height="284pt"
 viewBox="0.00 0.00 1082.00 284.00" xmlns="http://www.w3.org/2000/svg" xmlns:xlink="http://www.w3.org/1999/xlink">
<g id="graph0" class="graph" transform="scale(1 1) rotate(0) translate(4 280)">
<title>dependencies</title>
<polygon fill="#ffffff" stroke="transparent" points="-4,4 -4,-280 1078,-280 1078,4 -4,4"/>
<text text-anchor="start" x="516.0091" y="-42.4" font-family="sans-serif" font-weight="bold" font-size="14.00" fill="#000000">Legend</text>
<polygon fill="#ffffb3" stroke="transparent" points="303,-10 303,-30 323,-30 323,-10 303,-10"/>
<text text-anchor="start" x="326.629" y="-15.4" font-family="sans-serif" font-size="14.00" fill="#000000"> &#160;Declarations</text>
<polygon fill="#8dd3c7" stroke="transparent" points="416,-10 416,-30 436,-30 436,-10 416,-10"/>
<text text-anchor="start" x="439.7251" y="-15.4" font-family="sans-serif" font-size="14.00" fill="#000000"> &#160;Module</text>
<polygon fill="#80b1d3" stroke="transparent" points="502,-10 502,-30 522,-30 522,-10 502,-10"/>
<text text-anchor="start" x="525.7812" y="-15.4" font-family="sans-serif" font-size="14.00" fill="#000000"> &#160;Bootstrap</text>
<polygon fill="#fdb462" stroke="transparent" points="599,-10 599,-30 619,-30 619,-10 599,-10"/>
<text text-anchor="start" x="622.6732" y="-15.4" font-family="sans-serif" font-size="14.00" fill="#000000"> &#160;Providers</text>
<polygon fill="#fb8072" stroke="transparent" points="695,-10 695,-30 715,-30 715,-10 695,-10"/>
<text text-anchor="start" x="718.7258" y="-15.4" font-family="sans-serif" font-size="14.00" fill="#000000"> &#160;Exports</text>
<g id="clust1" class="cluster">
<title>cluster_AppModule</title>
<polygon fill="none" stroke="#000000" stroke-dasharray="1,5" points="8,-70 8,-268 1066,-268 1066,-70 8,-70"/>
</g>
<g id="clust2" class="cluster">
<title>cluster_AppModule_declarations</title>
<polygon fill="none" stroke="#000000" points="936,-78 936,-130 1058,-130 1058,-78 936,-78"/>
</g>
<g id="clust4" class="cluster">
<title>cluster_AppModule_imports</title>
<polygon fill="none" stroke="#000000" points="16,-78 16,-130 928,-130 928,-78 16,-78"/>
</g>
<g id="clust6" class="cluster">
<title>cluster_AppModule_bootstrap</title>
<polygon fill="none" stroke="#000000" points="513,-208 513,-260 637,-260 637,-208 513,-208"/>
</g>
<!-- AppComponent -->
<g id="node1" class="node">
<title>AppComponent</title>
<polygon fill="#ffffb3" stroke="#000000" points="1049.9399,-122 944.0601,-122 944.0601,-86 1049.9399,-86 1049.9399,-122"/>
<text text-anchor="middle" x="997" y="-99.8" font-family="Times,serif" font-size="14.00" fill="#000000">AppComponent</text>
</g>
<!-- AppModule -->
<g id="node2" class="node">
<title>AppModule</title>
<polygon fill="#8dd3c7" stroke="#000000" points="616.6571,-187 613.6571,-191 592.6571,-191 589.6571,-187 533.3429,-187 533.3429,-151 616.6571,-151 616.6571,-187"/>
<text text-anchor="middle" x="575" y="-164.8" font-family="Times,serif" font-size="14.00" fill="#000000">AppModule</text>
</g>
<!-- AppComponent&#45;&gt;AppModule -->
<g id="edge1" class="edge">
<title>AppComponent&#45;&gt;AppModule</title>
<path fill="none" stroke="#000000" d="M997,-122.0109C997,-144.4852 997,-180 997,-180 997,-180 627.0058,-180 627.0058,-180"/>
<polygon fill="#000000" stroke="#000000" points="627.0058,-176.5001 617.0058,-180 627.0057,-183.5001 627.0058,-176.5001"/>
</g>
<!-- AppComponent  -->
<g id="node11" class="node">
<title>AppComponent </title>
<polygon fill="#80b1d3" stroke="#000000" points="629.439,-252 520.561,-252 520.561,-216 629.439,-216 629.439,-252"/>
<text text-anchor="middle" x="575" y="-229.8" font-family="Times,serif" font-size="14.00" fill="#000000">AppComponent </text>
</g>
<!-- AppModule&#45;&gt;AppComponent  -->
<g id="edge11" class="edge">
<title>AppModule&#45;&gt;AppComponent </title>
<path fill="none" stroke="#000000" stroke-dasharray="1,5" d="M575,-187.1061C575,-187.1061 575,-205.991 575,-205.991"/>
<polygon fill="#000000" stroke="#000000" points="571.5001,-205.9909 575,-215.991 578.5001,-205.991 571.5001,-205.9909"/>
</g>
<!-- BrowserModule -->
<g id="node3" class="node">
<title>BrowserModule</title>
<polygon fill="#8dd3c7" stroke="#000000" points="920.4734,-122 917.4734,-126 896.4734,-126 893.4734,-122 813.5266,-122 813.5266,-86 920.4734,-86 920.4734,-122"/>
<text text-anchor="middle" x="867" y="-99.8" font-family="Times,serif" font-size="14.00" fill="#000000">BrowserModule</text>
</g>
<!-- BrowserModule&#45;&gt;AppModule -->
<g id="edge2" class="edge">
<title>BrowserModule&#45;&gt;AppModule</title>
<path fill="none" stroke="#000000" d="M867,-122.1289C867,-142.5724 867,-173 867,-173 867,-173 626.8365,-173 626.8365,-173"/>
<polygon fill="#000000" stroke="#000000" points="626.8365,-169.5001 616.8365,-173 626.8364,-176.5001 626.8365,-169.5001"/>
</g>
<!-- FormsModule -->
<g id="node4" class="node">
<title>FormsModule</title>
<polygon fill="#8dd3c7" stroke="#000000" points="795.8288,-122 792.8288,-126 771.8288,-126 768.8288,-122 700.1712,-122 700.1712,-86 795.8288,-86 795.8288,-122"/>
<text text-anchor="middle" x="748" y="-99.8" font-family="Times,serif" font-size="14.00" fill="#000000">FormsModule</text>
</g>
<!-- FormsModule&#45;&gt;AppModule -->
<g id="edge3" class="edge">
<title>FormsModule&#45;&gt;AppModule</title>
<path fill="none" stroke="#000000" d="M732.112,-122.0091C732.112,-138.0494 732.112,-159 732.112,-159 732.112,-159 626.6906,-159 626.6906,-159"/>
<polygon fill="#000000" stroke="#000000" points="626.6907,-155.5001 616.6906,-159 626.6906,-162.5001 626.6907,-155.5001"/>
</g>
<!-- FormsModule&#45;&gt;AppModule -->
<g id="edge7" class="edge">
<title>FormsModule&#45;&gt;AppModule</title>
<path fill="none" stroke="#000000" d="M763.888,-122.2667C763.888,-140.5552 763.888,-166 763.888,-166 763.888,-166 626.9204,-166 626.9204,-166"/>
<polygon fill="#000000" stroke="#000000" points="626.9204,-162.5001 616.9204,-166 626.9203,-169.5001 626.9204,-162.5001"/>
</g>
<!-- ButtonModule -->
<g id="node5" class="node">
<title>ButtonModule</title>
<polygon fill="#8dd3c7" stroke="#000000" points="682.6682,-122 679.6682,-126 658.6682,-126 655.6682,-122 585.3318,-122 585.3318,-86 682.6682,-86 682.6682,-122"/>
<text text-anchor="middle" x="634" y="-99.8" font-family="Times,serif" font-size="14.00" fill="#000000">ButtonModule</text>
</g>
<!-- ButtonModule&#45;&gt;AppModule -->
<g id="edge4" class="edge">
<title>ButtonModule&#45;&gt;AppModule</title>
<path fill="none" stroke="#000000" d="M600.9972,-122.1061C600.9972,-122.1061 600.9972,-140.991 600.9972,-140.991"/>
<polygon fill="#000000" stroke="#000000" points="597.4973,-140.9909 600.9972,-150.991 604.4973,-140.991 597.4973,-140.9909"/>
</g>
<!-- AnchorModule -->
<g id="node6" class="node">
<title>AnchorModule</title>
<polygon fill="#8dd3c7" stroke="#000000" points="566.5327,-122 563.5327,-126 542.5327,-126 539.5327,-122 465.4673,-122 465.4673,-86 566.5327,-86 566.5327,-122"/>
<text text-anchor="middle" x="516" y="-99.8" font-family="Times,serif" font-size="14.00" fill="#000000">AnchorModule</text>
</g>
<!-- AnchorModule&#45;&gt;AppModule -->
<g id="edge5" class="edge">
<title>AnchorModule&#45;&gt;AppModule</title>
<path fill="none" stroke="#000000" d="M549.9688,-122.1061C549.9688,-122.1061 549.9688,-140.991 549.9688,-140.991"/>
<polygon fill="#000000" stroke="#000000" points="546.4689,-140.9909 549.9688,-150.991 553.4689,-140.991 546.4689,-140.9909"/>
</g>
<!-- IconModule -->
<g id="node7" class="node">
<title>IconModule</title>
<polygon fill="#8dd3c7" stroke="#000000" points="447.4261,-122 444.4261,-126 423.4261,-126 420.4261,-122 362.5739,-122 362.5739,-86 447.4261,-86 447.4261,-122"/>
<text text-anchor="middle" x="405" y="-99.8" font-family="Times,serif" font-size="14.00" fill="#000000">IconModule</text>
</g>
<!-- IconModule&#45;&gt;AppModule -->
<g id="edge6" class="edge">
<title>IconModule&#45;&gt;AppModule</title>
<path fill="none" stroke="#000000" d="M405,-122.0091C405,-138.0494 405,-159 405,-159 405,-159 522.9775,-159 522.9775,-159"/>
<polygon fill="#000000" stroke="#000000" points="522.9776,-162.5001 532.9775,-159 522.9775,-155.5001 522.9776,-162.5001"/>
</g>
<!-- AudioModule -->
<g id="node8" class="node">
<title>AudioModule</title>
<polygon fill="#8dd3c7" stroke="#000000" points="345.0481,-122 342.0481,-126 321.0481,-126 318.0481,-122 250.9519,-122 250.9519,-86 345.0481,-86 345.0481,-122"/>
<text text-anchor="middle" x="298" y="-99.8" font-family="Times,serif" font-size="14.00" fill="#000000">AudioModule</text>
</g>
<!-- AudioModule&#45;&gt;AppModule -->
<g id="edge8" class="edge">
<title>AudioModule&#45;&gt;AppModule</title>
<path fill="none" stroke="#000000" d="M298,-122.2667C298,-140.5552 298,-166 298,-166 298,-166 523.2304,-166 523.2304,-166"/>
<polygon fill="#000000" stroke="#000000" points="523.2304,-169.5001 533.2304,-166 523.2304,-162.5001 523.2304,-169.5001"/>
</g>
<!-- LabelModule -->
<g id="node9" class="node">
<title>LabelModule</title>
<polygon fill="#8dd3c7" stroke="#000000" points="232.9232,-122 229.9232,-126 208.9232,-126 205.9232,-122 141.0768,-122 141.0768,-86 232.9232,-86 232.9232,-122"/>
<text text-anchor="middle" x="187" y="-99.8" font-family="Times,serif" font-size="14.00" fill="#000000">LabelModule</text>
</g>
<!-- LabelModule&#45;&gt;AppModule -->
<g id="edge9" class="edge">
<title>LabelModule&#45;&gt;AppModule</title>
<path fill="none" stroke="#000000" d="M187,-122.1289C187,-142.5724 187,-173 187,-173 187,-173 523.1086,-173 523.1086,-173"/>
<polygon fill="#000000" stroke="#000000" points="523.1086,-176.5001 533.1086,-173 523.1085,-169.5001 523.1086,-176.5001"/>
</g>
<!-- PictureModule -->
<g id="node10" class="node">
<title>PictureModule</title>
<polygon fill="#8dd3c7" stroke="#000000" points="123.7036,-122 120.7036,-126 99.7036,-126 96.7036,-122 24.2964,-122 24.2964,-86 123.7036,-86 123.7036,-122"/>
<text text-anchor="middle" x="74" y="-99.8" font-family="Times,serif" font-size="14.00" fill="#000000">PictureModule</text>
</g>
<!-- PictureModule&#45;&gt;AppModule -->
<g id="edge10" class="edge">
<title>PictureModule&#45;&gt;AppModule</title>
<path fill="none" stroke="#000000" d="M74,-122.0109C74,-144.4852 74,-180 74,-180 74,-180 523.1467,-180 523.1467,-180"/>
<polygon fill="#000000" stroke="#000000" points="523.1468,-183.5001 533.1467,-180 523.1467,-176.5001 523.1468,-183.5001"/>
</g>
</g>
</svg>
