<?xml version="1.0" encoding="UTF-8" standalone="no"?>
<!DOCTYPE svg PUBLIC "-//W3C//DTD SVG 1.1//EN"
 "http://www.w3.org/Graphics/SVG/1.1/DTD/svg11.dtd">
<!-- Generated by graphviz version 2.40.1 (20161225.0304)
 -->
<!-- Title: dependencies Pages: 1 -->
<svg width="1362pt" height="284pt"
 viewBox="0.00 0.00 1362.00 284.00" xmlns="http://www.w3.org/2000/svg" xmlns:xlink="http://www.w3.org/1999/xlink">
<g id="graph0" class="graph" transform="scale(1 1) rotate(0) translate(4 280)">
<title>dependencies</title>
<polygon fill="#ffffff" stroke="transparent" points="-4,4 -4,-280 1358,-280 1358,4 -4,4"/>
<text text-anchor="start" x="656.0091" y="-42.4" font-family="sans-serif" font-weight="bold" font-size="14.00" fill="#000000">Legend</text>
<polygon fill="#ffffb3" stroke="transparent" points="443,-10 443,-30 463,-30 463,-10 443,-10"/>
<text text-anchor="start" x="466.629" y="-15.4" font-family="sans-serif" font-size="14.00" fill="#000000"> &#160;Declarations</text>
<polygon fill="#8dd3c7" stroke="transparent" points="556,-10 556,-30 576,-30 576,-10 556,-10"/>
<text text-anchor="start" x="579.7251" y="-15.4" font-family="sans-serif" font-size="14.00" fill="#000000"> &#160;Module</text>
<polygon fill="#80b1d3" stroke="transparent" points="642,-10 642,-30 662,-30 662,-10 642,-10"/>
<text text-anchor="start" x="665.7812" y="-15.4" font-family="sans-serif" font-size="14.00" fill="#000000"> &#160;Bootstrap</text>
<polygon fill="#fdb462" stroke="transparent" points="739,-10 739,-30 759,-30 759,-10 739,-10"/>
<text text-anchor="start" x="762.6732" y="-15.4" font-family="sans-serif" font-size="14.00" fill="#000000"> &#160;Providers</text>
<polygon fill="#fb8072" stroke="transparent" points="835,-10 835,-30 855,-30 855,-10 835,-10"/>
<text text-anchor="start" x="858.7258" y="-15.4" font-family="sans-serif" font-size="14.00" fill="#000000"> &#160;Exports</text>
<g id="clust1" class="cluster">
<title>cluster_AppModule</title>
<polygon fill="none" stroke="#000000" stroke-dasharray="1,5" points="8,-70 8,-268 1346,-268 1346,-70 8,-70"/>
</g>
<g id="clust2" class="cluster">
<title>cluster_AppModule_declarations</title>
<polygon fill="none" stroke="#000000" points="1083,-78 1083,-130 1338,-130 1338,-78 1083,-78"/>
</g>
<g id="clust5" class="cluster">
<title>cluster_AppModule_imports</title>
<polygon fill="none" stroke="#000000" points="16,-78 16,-130 1075,-130 1075,-78 16,-78"/>
</g>
<g id="clust7" class="cluster">
<title>cluster_AppModule_bootstrap</title>
<polygon fill="none" stroke="#000000" points="572,-208 572,-260 696,-260 696,-208 572,-208"/>
</g>
<!-- AppComponent -->
<g id="node1" class="node">
<title>AppComponent</title>
<polygon fill="#ffffb3" stroke="#000000" points="1329.9399,-122 1224.0601,-122 1224.0601,-86 1329.9399,-86 1329.9399,-122"/>
<text text-anchor="middle" x="1277" y="-99.8" font-family="Times,serif" font-size="14.00" fill="#000000">AppComponent</text>
</g>
<!-- AppModule -->
<g id="node3" class="node">
<title>AppModule</title>
<polygon fill="#8dd3c7" stroke="#000000" points="675.6571,-187 672.6571,-191 651.6571,-191 648.6571,-187 592.3429,-187 592.3429,-151 675.6571,-151 675.6571,-187"/>
<text text-anchor="middle" x="634" y="-164.8" font-family="Times,serif" font-size="14.00" fill="#000000">AppModule</text>
</g>
<!-- AppComponent&#45;&gt;AppModule -->
<g id="edge1" class="edge">
<title>AppComponent&#45;&gt;AppModule</title>
<path fill="none" stroke="#000000" d="M1277,-122.2479C1277,-145.0179 1277,-181 1277,-181 1277,-181 685.6936,-181 685.6936,-181"/>
<polygon fill="#000000" stroke="#000000" points="685.6936,-177.5001 675.6936,-181 685.6936,-184.5001 685.6936,-177.5001"/>
</g>
<!-- HomeComponent -->
<g id="node2" class="node">
<title>HomeComponent</title>
<polygon fill="#ffffb3" stroke="#000000" points="1206.5451,-122 1091.4549,-122 1091.4549,-86 1206.5451,-86 1206.5451,-122"/>
<text text-anchor="middle" x="1149" y="-99.8" font-family="Times,serif" font-size="14.00" fill="#000000">HomeComponent</text>
</g>
<!-- HomeComponent&#45;&gt;AppModule -->
<g id="edge2" class="edge">
<title>HomeComponent&#45;&gt;AppModule</title>
<path fill="none" stroke="#000000" d="M1149,-122.2843C1149,-143.3211 1149,-175 1149,-175 1149,-175 685.7084,-175 685.7084,-175"/>
<polygon fill="#000000" stroke="#000000" points="685.7084,-171.5001 675.7084,-175 685.7083,-178.5001 685.7084,-171.5001"/>
</g>
<!-- AppComponent  -->
<g id="node13" class="node">
<title>AppComponent </title>
<polygon fill="#80b1d3" stroke="#000000" points="688.439,-252 579.561,-252 579.561,-216 688.439,-216 688.439,-252"/>
<text text-anchor="middle" x="634" y="-229.8" font-family="Times,serif" font-size="14.00" fill="#000000">AppComponent </text>
</g>
<!-- AppModule&#45;&gt;AppComponent  -->
<g id="edge12" class="edge">
<title>AppModule&#45;&gt;AppComponent </title>
<path fill="none" stroke="#000000" stroke-dasharray="1,5" d="M634,-187.1061C634,-187.1061 634,-205.991 634,-205.991"/>
<polygon fill="#000000" stroke="#000000" points="630.5001,-205.9909 634,-215.991 637.5001,-205.991 630.5001,-205.9909"/>
</g>
<!-- BrowserModule -->
<g id="node4" class="node">
<title>BrowserModule</title>
<polygon fill="#8dd3c7" stroke="#000000" points="1067.4734,-122 1064.4734,-126 1043.4734,-126 1040.4734,-122 960.5266,-122 960.5266,-86 1067.4734,-86 1067.4734,-122"/>
<text text-anchor="middle" x="1014" y="-99.8" font-family="Times,serif" font-size="14.00" fill="#000000">BrowserModule</text>
</g>
<!-- BrowserModule&#45;&gt;AppModule -->
<g id="edge3" class="edge">
<title>BrowserModule&#45;&gt;AppModule</title>
<path fill="none" stroke="#000000" d="M1014,-122.1061C1014,-141.3391 1014,-169 1014,-169 1014,-169 685.7537,-169 685.7537,-169"/>
<polygon fill="#000000" stroke="#000000" points="685.7537,-165.5001 675.7537,-169 685.7536,-172.5001 685.7537,-165.5001"/>
</g>
<!-- FormsModule -->
<g id="node5" class="node">
<title>FormsModule</title>
<polygon fill="#8dd3c7" stroke="#000000" points="942.8288,-122 939.8288,-126 918.8288,-126 915.8288,-122 847.1712,-122 847.1712,-86 942.8288,-86 942.8288,-122"/>
<text text-anchor="middle" x="895" y="-99.8" font-family="Times,serif" font-size="14.00" fill="#000000">FormsModule</text>
</g>
<!-- FormsModule&#45;&gt;AppModule -->
<g id="edge4" class="edge">
<title>FormsModule&#45;&gt;AppModule</title>
<path fill="none" stroke="#000000" d="M895,-122.0225C895,-139.3734 895,-163 895,-163 895,-163 685.9342,-163 685.9342,-163"/>
<polygon fill="#000000" stroke="#000000" points="685.9342,-159.5001 675.9342,-163 685.9341,-166.5001 685.9342,-159.5001"/>
</g>
<!-- AppRoutingModule -->
<g id="node6" class="node">
<title>AppRoutingModule</title>
<polygon fill="#8dd3c7" stroke="#000000" points="829.2744,-122 826.2744,-126 805.2744,-126 802.2744,-122 700.7256,-122 700.7256,-86 829.2744,-86 829.2744,-122"/>
<text text-anchor="middle" x="765" y="-99.8" font-family="Times,serif" font-size="14.00" fill="#000000">AppRoutingModule</text>
</g>
<!-- AppRoutingModule&#45;&gt;AppModule -->
<g id="edge5" class="edge">
<title>AppRoutingModule&#45;&gt;AppModule</title>
<path fill="none" stroke="#000000" d="M765,-122.2396C765,-137.5706 765,-157 765,-157 765,-157 685.8094,-157 685.8094,-157"/>
<polygon fill="#000000" stroke="#000000" points="685.8094,-153.5001 675.8094,-157 685.8094,-160.5001 685.8094,-153.5001"/>
</g>
<!-- ButtonModule -->
<g id="node7" class="node">
<title>ButtonModule</title>
<polygon fill="#8dd3c7" stroke="#000000" points="682.6682,-122 679.6682,-126 658.6682,-126 655.6682,-122 585.3318,-122 585.3318,-86 682.6682,-86 682.6682,-122"/>
<text text-anchor="middle" x="634" y="-99.8" font-family="Times,serif" font-size="14.00" fill="#000000">ButtonModule</text>
</g>
<!-- ButtonModule&#45;&gt;AppModule -->
<g id="edge6" class="edge">
<title>ButtonModule&#45;&gt;AppModule</title>
<path fill="none" stroke="#000000" d="M634,-122.1061C634,-122.1061 634,-140.991 634,-140.991"/>
<polygon fill="#000000" stroke="#000000" points="630.5001,-140.9909 634,-150.991 637.5001,-140.991 630.5001,-140.9909"/>
</g>
<!-- AnchorModule -->
<g id="node8" class="node">
<title>AnchorModule</title>
<polygon fill="#8dd3c7" stroke="#000000" points="566.5327,-122 563.5327,-126 542.5327,-126 539.5327,-122 465.4673,-122 465.4673,-86 566.5327,-86 566.5327,-122"/>
<text text-anchor="middle" x="516" y="-99.8" font-family="Times,serif" font-size="14.00" fill="#000000">AnchorModule</text>
</g>
<!-- AnchorModule&#45;&gt;AppModule -->
<g id="edge7" class="edge">
<title>AnchorModule&#45;&gt;AppModule</title>
<path fill="none" stroke="#000000" d="M516,-122.2396C516,-137.5706 516,-157 516,-157 516,-157 582.0654,-157 582.0654,-157"/>
<polygon fill="#000000" stroke="#000000" points="582.0654,-160.5001 592.0654,-157 582.0653,-153.5001 582.0654,-160.5001"/>
</g>
<!-- IconModule -->
<g id="node9" class="node">
<title>IconModule</title>
<polygon fill="#8dd3c7" stroke="#000000" points="447.4261,-122 444.4261,-126 423.4261,-126 420.4261,-122 362.5739,-122 362.5739,-86 447.4261,-86 447.4261,-122"/>
<text text-anchor="middle" x="405" y="-99.8" font-family="Times,serif" font-size="14.00" fill="#000000">IconModule</text>
</g>
<!-- IconModule&#45;&gt;AppModule -->
<g id="edge8" class="edge">
<title>IconModule&#45;&gt;AppModule</title>
<path fill="none" stroke="#000000" d="M405,-122.0225C405,-139.3734 405,-163 405,-163 405,-163 582.2641,-163 582.2641,-163"/>
<polygon fill="#000000" stroke="#000000" points="582.2642,-166.5001 592.2641,-163 582.2641,-159.5001 582.2642,-166.5001"/>
</g>
<!-- AudioModule -->
<g id="node10" class="node">
<title>AudioModule</title>
<polygon fill="#8dd3c7" stroke="#000000" points="345.0481,-122 342.0481,-126 321.0481,-126 318.0481,-122 250.9519,-122 250.9519,-86 345.0481,-86 345.0481,-122"/>
<text text-anchor="middle" x="298" y="-99.8" font-family="Times,serif" font-size="14.00" fill="#000000">AudioModule</text>
</g>
<!-- AudioModule&#45;&gt;AppModule -->
<g id="edge9" class="edge">
<title>AudioModule&#45;&gt;AppModule</title>
<path fill="none" stroke="#000000" d="M298,-122.1061C298,-141.3391 298,-169 298,-169 298,-169 582.1247,-169 582.1247,-169"/>
<polygon fill="#000000" stroke="#000000" points="582.1248,-172.5001 592.1247,-169 582.1247,-165.5001 582.1248,-172.5001"/>
</g>
<!-- LabelModule -->
<g id="node11" class="node">
<title>LabelModule</title>
<polygon fill="#8dd3c7" stroke="#000000" points="232.9232,-122 229.9232,-126 208.9232,-126 205.9232,-122 141.0768,-122 141.0768,-86 232.9232,-86 232.9232,-122"/>
<text text-anchor="middle" x="187" y="-99.8" font-family="Times,serif" font-size="14.00" fill="#000000">LabelModule</text>
</g>
<!-- LabelModule&#45;&gt;AppModule -->
<g id="edge10" class="edge">
<title>LabelModule&#45;&gt;AppModule</title>
<path fill="none" stroke="#000000" d="M187,-122.2843C187,-143.3211 187,-175 187,-175 187,-175 581.9473,-175 581.9473,-175"/>
<polygon fill="#000000" stroke="#000000" points="581.9474,-178.5001 591.9473,-175 581.9473,-171.5001 581.9474,-178.5001"/>
</g>
<!-- PictureModule -->
<g id="node12" class="node">
<title>PictureModule</title>
<polygon fill="#8dd3c7" stroke="#000000" points="123.7036,-122 120.7036,-126 99.7036,-126 96.7036,-122 24.2964,-122 24.2964,-86 123.7036,-86 123.7036,-122"/>
<text text-anchor="middle" x="74" y="-99.8" font-family="Times,serif" font-size="14.00" fill="#000000">PictureModule</text>
</g>
<!-- PictureModule&#45;&gt;AppModule -->
<g id="edge11" class="edge">
<title>PictureModule&#45;&gt;AppModule</title>
<path fill="none" stroke="#000000" d="M74,-122.2479C74,-145.0179 74,-181 74,-181 74,-181 581.909,-181 581.909,-181"/>
<polygon fill="#000000" stroke="#000000" points="581.909,-184.5001 591.909,-181 581.9089,-177.5001 581.909,-184.5001"/>
</g>
</g>
</svg>
