<?xml version="1.0" encoding="UTF-8" standalone="no"?>
<!DOCTYPE svg PUBLIC "-//W3C//DTD SVG 1.1//EN"
 "http://www.w3.org/Graphics/SVG/1.1/DTD/svg11.dtd">
<!-- Generated by graphviz version 2.40.1 (20161225.0304)
 -->
<!-- Title: dependencies Pages: 1 -->
<svg width="1124pt" height="284pt"
 viewBox="0.00 0.00 1124.00 284.00" xmlns="http://www.w3.org/2000/svg" xmlns:xlink="http://www.w3.org/1999/xlink">
<g id="graph0" class="graph" transform="scale(1 1) rotate(0) translate(4 280)">
<title>dependencies</title>
<polygon fill="#ffffff" stroke="transparent" points="-4,4 -4,-280 1120,-280 1120,4 -4,4"/>
<text text-anchor="start" x="537.0091" y="-42.4" font-family="sans-serif" font-weight="bold" font-size="14.00" fill="#000000">Legend</text>
<polygon fill="#ffffb3" stroke="transparent" points="324,-10 324,-30 344,-30 344,-10 324,-10"/>
<text text-anchor="start" x="347.629" y="-15.4" font-family="sans-serif" font-size="14.00" fill="#000000"> &#160;Declarations</text>
<polygon fill="#8dd3c7" stroke="transparent" points="437,-10 437,-30 457,-30 457,-10 437,-10"/>
<text text-anchor="start" x="460.7251" y="-15.4" font-family="sans-serif" font-size="14.00" fill="#000000"> &#160;Module</text>
<polygon fill="#80b1d3" stroke="transparent" points="523,-10 523,-30 543,-30 543,-10 523,-10"/>
<text text-anchor="start" x="546.7812" y="-15.4" font-family="sans-serif" font-size="14.00" fill="#000000"> &#160;Bootstrap</text>
<polygon fill="#fdb462" stroke="transparent" points="620,-10 620,-30 640,-30 640,-10 620,-10"/>
<text text-anchor="start" x="643.6732" y="-15.4" font-family="sans-serif" font-size="14.00" fill="#000000"> &#160;Providers</text>
<polygon fill="#fb8072" stroke="transparent" points="716,-10 716,-30 736,-30 736,-10 716,-10"/>
<text text-anchor="start" x="739.7258" y="-15.4" font-family="sans-serif" font-size="14.00" fill="#000000"> &#160;Exports</text>
<g id="clust1" class="cluster">
<title>cluster_AppModule</title>
<polygon fill="none" stroke="#000000" stroke-dasharray="1,5" points="8,-70 8,-268 1108,-268 1108,-70 8,-70"/>
</g>
<g id="clust2" class="cluster">
<title>cluster_AppModule_declarations</title>
<polygon fill="none" stroke="#000000" points="845,-78 845,-130 1100,-130 1100,-78 845,-78"/>
</g>
<g id="clust5" class="cluster">
<title>cluster_AppModule_imports</title>
<polygon fill="none" stroke="#000000" points="16,-78 16,-130 837,-130 837,-78 16,-78"/>
</g>
<g id="clust7" class="cluster">
<title>cluster_AppModule_bootstrap</title>
<polygon fill="none" stroke="#000000" points="454,-208 454,-260 578,-260 578,-208 454,-208"/>
</g>
<!-- AppComponent -->
<g id="node1" class="node">
<title>AppComponent</title>
<polygon fill="#ffffb3" stroke="#000000" points="1091.9399,-122 986.0601,-122 986.0601,-86 1091.9399,-86 1091.9399,-122"/>
<text text-anchor="middle" x="1039" y="-99.8" font-family="Times,serif" font-size="14.00" fill="#000000">AppComponent</text>
</g>
<!-- AppModule -->
<g id="node3" class="node">
<title>AppModule</title>
<polygon fill="#8dd3c7" stroke="#000000" points="557.6571,-187 554.6571,-191 533.6571,-191 530.6571,-187 474.3429,-187 474.3429,-151 557.6571,-151 557.6571,-187"/>
<text text-anchor="middle" x="516" y="-164.8" font-family="Times,serif" font-size="14.00" fill="#000000">AppModule</text>
</g>
<!-- AppComponent&#45;&gt;AppModule -->
<g id="edge1" class="edge">
<title>AppComponent&#45;&gt;AppModule</title>
<path fill="none" stroke="#000000" d="M1039,-122.0109C1039,-144.4852 1039,-180 1039,-180 1039,-180 567.9152,-180 567.9152,-180"/>
<polygon fill="#000000" stroke="#000000" points="567.9152,-176.5001 557.9152,-180 567.9152,-183.5001 567.9152,-176.5001"/>
</g>
<!-- HomeComponent -->
<g id="node2" class="node">
<title>HomeComponent</title>
<polygon fill="#ffffb3" stroke="#000000" points="968.5451,-122 853.4549,-122 853.4549,-86 968.5451,-86 968.5451,-122"/>
<text text-anchor="middle" x="911" y="-99.8" font-family="Times,serif" font-size="14.00" fill="#000000">HomeComponent</text>
</g>
<!-- HomeComponent&#45;&gt;AppModule -->
<g id="edge2" class="edge">
<title>HomeComponent&#45;&gt;AppModule</title>
<path fill="none" stroke="#000000" d="M911,-122.1289C911,-142.5724 911,-173 911,-173 911,-173 567.898,-173 567.898,-173"/>
<polygon fill="#000000" stroke="#000000" points="567.898,-169.5001 557.898,-173 567.8979,-176.5001 567.898,-169.5001"/>
</g>
<!-- AppComponent  -->
<g id="node11" class="node">
<title>AppComponent </title>
<polygon fill="#80b1d3" stroke="#000000" points="570.439,-252 461.561,-252 461.561,-216 570.439,-216 570.439,-252"/>
<text text-anchor="middle" x="516" y="-229.8" font-family="Times,serif" font-size="14.00" fill="#000000">AppComponent </text>
</g>
<!-- AppModule&#45;&gt;AppComponent  -->
<g id="edge10" class="edge">
<title>AppModule&#45;&gt;AppComponent </title>
<path fill="none" stroke="#000000" stroke-dasharray="1,5" d="M516,-187.1061C516,-187.1061 516,-205.991 516,-205.991"/>
<polygon fill="#000000" stroke="#000000" points="512.5001,-205.9909 516,-215.991 519.5001,-205.991 512.5001,-205.9909"/>
</g>
<!-- AppRoutingModule -->
<g id="node4" class="node">
<title>AppRoutingModule</title>
<polygon fill="#8dd3c7" stroke="#000000" points="829.2744,-122 826.2744,-126 805.2744,-126 802.2744,-122 700.7256,-122 700.7256,-86 829.2744,-86 829.2744,-122"/>
<text text-anchor="middle" x="765" y="-99.8" font-family="Times,serif" font-size="14.00" fill="#000000">AppRoutingModule</text>
</g>
<!-- AppRoutingModule&#45;&gt;AppModule -->
<g id="edge3" class="edge">
<title>AppRoutingModule&#45;&gt;AppModule</title>
<path fill="none" stroke="#000000" d="M765,-122.2667C765,-140.5552 765,-166 765,-166 765,-166 567.677,-166 567.677,-166"/>
<polygon fill="#000000" stroke="#000000" points="567.677,-162.5001 557.677,-166 567.677,-169.5001 567.677,-162.5001"/>
</g>
<!-- ButtonModule -->
<g id="node5" class="node">
<title>ButtonModule</title>
<polygon fill="#8dd3c7" stroke="#000000" points="682.6682,-122 679.6682,-126 658.6682,-126 655.6682,-122 585.3318,-122 585.3318,-86 682.6682,-86 682.6682,-122"/>
<text text-anchor="middle" x="634" y="-99.8" font-family="Times,serif" font-size="14.00" fill="#000000">ButtonModule</text>
</g>
<!-- ButtonModule&#45;&gt;AppModule -->
<g id="edge4" class="edge">
<title>ButtonModule&#45;&gt;AppModule</title>
<path fill="none" stroke="#000000" d="M634,-122.0091C634,-138.0494 634,-159 634,-159 634,-159 567.9346,-159 567.9346,-159"/>
<polygon fill="#000000" stroke="#000000" points="567.9347,-155.5001 557.9346,-159 567.9346,-162.5001 567.9347,-155.5001"/>
</g>
<!-- AnchorModule -->
<g id="node6" class="node">
<title>AnchorModule</title>
<polygon fill="#8dd3c7" stroke="#000000" points="566.5327,-122 563.5327,-126 542.5327,-126 539.5327,-122 465.4673,-122 465.4673,-86 566.5327,-86 566.5327,-122"/>
<text text-anchor="middle" x="516" y="-99.8" font-family="Times,serif" font-size="14.00" fill="#000000">AnchorModule</text>
</g>
<!-- AnchorModule&#45;&gt;AppModule -->
<g id="edge5" class="edge">
<title>AnchorModule&#45;&gt;AppModule</title>
<path fill="none" stroke="#000000" d="M516,-122.1061C516,-122.1061 516,-140.991 516,-140.991"/>
<polygon fill="#000000" stroke="#000000" points="512.5001,-140.9909 516,-150.991 519.5001,-140.991 512.5001,-140.9909"/>
</g>
<!-- IconModule -->
<g id="node7" class="node">
<title>IconModule</title>
<polygon fill="#8dd3c7" stroke="#000000" points="447.4261,-122 444.4261,-126 423.4261,-126 420.4261,-122 362.5739,-122 362.5739,-86 447.4261,-86 447.4261,-122"/>
<text text-anchor="middle" x="405" y="-99.8" font-family="Times,serif" font-size="14.00" fill="#000000">IconModule</text>
</g>
<!-- IconModule&#45;&gt;AppModule -->
<g id="edge6" class="edge">
<title>IconModule&#45;&gt;AppModule</title>
<path fill="none" stroke="#000000" d="M405,-122.0091C405,-138.0494 405,-159 405,-159 405,-159 464.0357,-159 464.0357,-159"/>
<polygon fill="#000000" stroke="#000000" points="464.0357,-162.5001 474.0357,-159 464.0356,-155.5001 464.0357,-162.5001"/>
</g>
<!-- AudioModule -->
<g id="node8" class="node">
<title>AudioModule</title>
<polygon fill="#8dd3c7" stroke="#000000" points="345.0481,-122 342.0481,-126 321.0481,-126 318.0481,-122 250.9519,-122 250.9519,-86 345.0481,-86 345.0481,-122"/>
<text text-anchor="middle" x="298" y="-99.8" font-family="Times,serif" font-size="14.00" fill="#000000">AudioModule</text>
</g>
<!-- AudioModule&#45;&gt;AppModule -->
<g id="edge7" class="edge">
<title>AudioModule&#45;&gt;AppModule</title>
<path fill="none" stroke="#000000" d="M298,-122.2667C298,-140.5552 298,-166 298,-166 298,-166 464.2253,-166 464.2253,-166"/>
<polygon fill="#000000" stroke="#000000" points="464.2254,-169.5001 474.2253,-166 464.2253,-162.5001 464.2254,-169.5001"/>
</g>
<!-- LabelModule -->
<g id="node9" class="node">
<title>LabelModule</title>
<polygon fill="#8dd3c7" stroke="#000000" points="232.9232,-122 229.9232,-126 208.9232,-126 205.9232,-122 141.0768,-122 141.0768,-86 232.9232,-86 232.9232,-122"/>
<text text-anchor="middle" x="187" y="-99.8" font-family="Times,serif" font-size="14.00" fill="#000000">LabelModule</text>
</g>
<!-- LabelModule&#45;&gt;AppModule -->
<g id="edge8" class="edge">
<title>LabelModule&#45;&gt;AppModule</title>
<path fill="none" stroke="#000000" d="M187,-122.1289C187,-142.5724 187,-173 187,-173 187,-173 464.3319,-173 464.3319,-173"/>
<polygon fill="#000000" stroke="#000000" points="464.332,-176.5001 474.3319,-173 464.3319,-169.5001 464.332,-176.5001"/>
</g>
<!-- PictureModule -->
<g id="node10" class="node">
<title>PictureModule</title>
<polygon fill="#8dd3c7" stroke="#000000" points="123.7036,-122 120.7036,-126 99.7036,-126 96.7036,-122 24.2964,-122 24.2964,-86 123.7036,-86 123.7036,-122"/>
<text text-anchor="middle" x="74" y="-99.8" font-family="Times,serif" font-size="14.00" fill="#000000">PictureModule</text>
</g>
<!-- PictureModule&#45;&gt;AppModule -->
<g id="edge9" class="edge">
<title>PictureModule&#45;&gt;AppModule</title>
<path fill="none" stroke="#000000" d="M74,-122.0109C74,-144.4852 74,-180 74,-180 74,-180 464.0192,-180 464.0192,-180"/>
<polygon fill="#000000" stroke="#000000" points="464.0193,-183.5001 474.0192,-180 464.0192,-176.5001 464.0193,-183.5001"/>
</g>
</g>
</svg>
