<?xml version="1.0" encoding="UTF-8" standalone="no"?>
<!DOCTYPE svg PUBLIC "-//W3C//DTD SVG 1.1//EN"
 "http://www.w3.org/Graphics/SVG/1.1/DTD/svg11.dtd">
<!-- Generated by graphviz version 2.40.1 (20161225.0304)
 -->
<!-- Title: dependencies Pages: 1 -->
<svg width="504pt" height="284pt"
 viewBox="0.00 0.00 504.00 284.00" xmlns="http://www.w3.org/2000/svg" xmlns:xlink="http://www.w3.org/1999/xlink">
<g id="graph0" class="graph" transform="scale(1 1) rotate(0) translate(4 280)">
<title>dependencies</title>
<polygon fill="#ffffff" stroke="transparent" points="-4,4 -4,-280 500,-280 500,4 -4,4"/>
<text text-anchor="start" x="227.0091" y="-42.4" font-family="sans-serif" font-weight="bold" font-size="14.00" fill="#000000">Legend</text>
<polygon fill="#ffffb3" stroke="transparent" points="14,-10 14,-30 34,-30 34,-10 14,-10"/>
<text text-anchor="start" x="37.629" y="-15.4" font-family="sans-serif" font-size="14.00" fill="#000000"> &#160;Declarations</text>
<polygon fill="#8dd3c7" stroke="transparent" points="127,-10 127,-30 147,-30 147,-10 127,-10"/>
<text text-anchor="start" x="150.7251" y="-15.4" font-family="sans-serif" font-size="14.00" fill="#000000"> &#160;Module</text>
<polygon fill="#80b1d3" stroke="transparent" points="213,-10 213,-30 233,-30 233,-10 213,-10"/>
<text text-anchor="start" x="236.7812" y="-15.4" font-family="sans-serif" font-size="14.00" fill="#000000"> &#160;Bootstrap</text>
<polygon fill="#fdb462" stroke="transparent" points="310,-10 310,-30 330,-30 330,-10 310,-10"/>
<text text-anchor="start" x="333.6732" y="-15.4" font-family="sans-serif" font-size="14.00" fill="#000000"> &#160;Providers</text>
<polygon fill="#fb8072" stroke="transparent" points="406,-10 406,-30 426,-30 426,-10 406,-10"/>
<text text-anchor="start" x="429.7258" y="-15.4" font-family="sans-serif" font-size="14.00" fill="#000000"> &#160;Exports</text>
<g id="clust1" class="cluster">
<title>cluster_AppModule</title>
<polygon fill="none" stroke="#000000" stroke-dasharray="1,5" points="70,-70 70,-268 426,-268 426,-70 70,-70"/>
</g>
<g id="clust2" class="cluster">
<title>cluster_AppModule_declarations</title>
<polygon fill="none" stroke="#000000" points="78,-78 78,-130 418,-130 418,-78 78,-78"/>
</g>
<g id="clust9" class="cluster">
<title>cluster_AppModule_bootstrap</title>
<polygon fill="none" stroke="#000000" points="161,-208 161,-260 285,-260 285,-208 161,-208"/>
</g>
<!-- AppComponent -->
<g id="node1" class="node">
<title>AppComponent</title>
<polygon fill="#ffffb3" stroke="#000000" points="409.9399,-122 304.0601,-122 304.0601,-86 409.9399,-86 409.9399,-122"/>
<text text-anchor="middle" x="357" y="-99.8" font-family="Times,serif" font-size="14.00" fill="#000000">AppComponent</text>
</g>
<!-- AppModule -->
<g id="node5" class="node">
<title>AppModule</title>
<polygon fill="#8dd3c7" stroke="#000000" points="264.6571,-187 261.6571,-191 240.6571,-191 237.6571,-187 181.3429,-187 181.3429,-151 264.6571,-151 264.6571,-187"/>
<text text-anchor="middle" x="223" y="-164.8" font-family="Times,serif" font-size="14.00" fill="#000000">AppModule</text>
</g>
<!-- AppComponent&#45;&gt;AppModule -->
<g id="edge1" class="edge">
<title>AppComponent&#45;&gt;AppModule</title>
<path fill="none" stroke="#000000" d="M357,-122.1061C357,-141.3391 357,-169 357,-169 357,-169 274.6639,-169 274.6639,-169"/>
<polygon fill="#000000" stroke="#000000" points="274.6639,-165.5001 264.6639,-169 274.6639,-172.5001 274.6639,-165.5001"/>
</g>
<!-- Label -->
<g id="node2" class="node">
<title>Label</title>
<polygon fill="#ffffb3" stroke="#000000" points="286,-122 232,-122 232,-86 286,-86 286,-122"/>
<text text-anchor="middle" x="259" y="-99.8" font-family="Times,serif" font-size="14.00" fill="#000000">Label</text>
</g>
<!-- Label&#45;&gt;AppModule -->
<g id="edge2" class="edge">
<title>Label&#45;&gt;AppModule</title>
<path fill="none" stroke="#000000" d="M248.4141,-122.1061C248.4141,-122.1061 248.4141,-140.991 248.4141,-140.991"/>
<polygon fill="#000000" stroke="#000000" points="244.9142,-140.9909 248.4141,-150.991 251.9142,-140.991 244.9142,-140.9909"/>
</g>
<!-- Audio -->
<g id="node3" class="node">
<title>Audio</title>
<polygon fill="#ffffb3" stroke="#000000" points="214,-122 160,-122 160,-86 214,-86 214,-122"/>
<text text-anchor="middle" x="187" y="-99.8" font-family="Times,serif" font-size="14.00" fill="#000000">Audio</text>
</g>
<!-- Audio&#45;&gt;AppModule -->
<g id="edge3" class="edge">
<title>Audio&#45;&gt;AppModule</title>
<path fill="none" stroke="#000000" d="M197.5859,-122.1061C197.5859,-122.1061 197.5859,-140.991 197.5859,-140.991"/>
<polygon fill="#000000" stroke="#000000" points="194.086,-140.9909 197.5859,-150.991 201.086,-140.991 194.086,-140.9909"/>
</g>
<!-- Picture -->
<g id="node4" class="node">
<title>Picture</title>
<polygon fill="#ffffb3" stroke="#000000" points="141.6547,-122 86.3453,-122 86.3453,-86 141.6547,-86 141.6547,-122"/>
<text text-anchor="middle" x="114" y="-99.8" font-family="Times,serif" font-size="14.00" fill="#000000">Picture</text>
</g>
<!-- Picture&#45;&gt;AppModule -->
<g id="edge4" class="edge">
<title>Picture&#45;&gt;AppModule</title>
<path fill="none" stroke="#000000" d="M114,-122.1061C114,-141.3391 114,-169 114,-169 114,-169 171.1695,-169 171.1695,-169"/>
<polygon fill="#000000" stroke="#000000" points="171.1695,-172.5001 181.1695,-169 171.1695,-165.5001 171.1695,-172.5001"/>
</g>
<!-- AppComponent  -->
<g id="node6" class="node">
<title>AppComponent </title>
<polygon fill="#80b1d3" stroke="#000000" points="277.439,-252 168.561,-252 168.561,-216 277.439,-216 277.439,-252"/>
<text text-anchor="middle" x="223" y="-229.8" font-family="Times,serif" font-size="14.00" fill="#000000">AppComponent </text>
</g>
<!-- AppModule&#45;&gt;AppComponent  -->
<g id="edge5" class="edge">
<title>AppModule&#45;&gt;AppComponent </title>
<path fill="none" stroke="#000000" stroke-dasharray="1,5" d="M223,-187.1061C223,-187.1061 223,-205.991 223,-205.991"/>
<polygon fill="#000000" stroke="#000000" points="219.5001,-205.9909 223,-215.991 226.5001,-205.991 219.5001,-205.9909"/>
</g>
</g>
</svg>
