<?xml version="1.0" encoding="UTF-8" standalone="no"?>
<!DOCTYPE svg PUBLIC "-//W3C//DTD SVG 1.1//EN"
 "http://www.w3.org/Graphics/SVG/1.1/DTD/svg11.dtd">
<!-- Generated by graphviz version 2.40.1 (20161225.0304)
 -->
<!-- Title: dependencies Pages: 1 -->
<svg width="3880pt" height="442pt"
 viewBox="0.00 0.00 3880.00 442.00" xmlns="http://www.w3.org/2000/svg" xmlns:xlink="http://www.w3.org/1999/xlink">
<g id="graph0" class="graph" transform="scale(1 1) rotate(0) translate(4 438)">
<title>dependencies</title>
<polygon fill="#ffffff" stroke="transparent" points="-4,4 -4,-438 3876,-438 3876,4 -4,4"/>
<text text-anchor="start" x="1915.0091" y="-42.4" font-family="sans-serif" font-weight="bold" font-size="14.00" fill="#000000">Legend</text>
<polygon fill="#ffffb3" stroke="transparent" points="1702,-10 1702,-30 1722,-30 1722,-10 1702,-10"/>
<text text-anchor="start" x="1725.629" y="-15.4" font-family="sans-serif" font-size="14.00" fill="#000000"> &#160;Declarations</text>
<polygon fill="#8dd3c7" stroke="transparent" points="1815,-10 1815,-30 1835,-30 1835,-10 1815,-10"/>
<text text-anchor="start" x="1838.7251" y="-15.4" font-family="sans-serif" font-size="14.00" fill="#000000"> &#160;Module</text>
<polygon fill="#80b1d3" stroke="transparent" points="1901,-10 1901,-30 1921,-30 1921,-10 1901,-10"/>
<text text-anchor="start" x="1924.7812" y="-15.4" font-family="sans-serif" font-size="14.00" fill="#000000"> &#160;Bootstrap</text>
<polygon fill="#fdb462" stroke="transparent" points="1998,-10 1998,-30 2018,-30 2018,-10 1998,-10"/>
<text text-anchor="start" x="2021.6732" y="-15.4" font-family="sans-serif" font-size="14.00" fill="#000000"> &#160;Providers</text>
<polygon fill="#fb8072" stroke="transparent" points="2094,-10 2094,-30 2114,-30 2114,-10 2094,-10"/>
<text text-anchor="start" x="2117.7258" y="-15.4" font-family="sans-serif" font-size="14.00" fill="#000000"> &#160;Exports</text>
<g id="clust1" class="cluster">
<title>cluster_AnchorDemoModule</title>
<polygon fill="none" stroke="#000000" stroke-dasharray="1,5" points="8,-214 8,-350 522,-350 522,-214 8,-214"/>
</g>
<g id="clust2" class="cluster">
<title>cluster_AnchorDemoModule_declarations</title>
<polygon fill="none" stroke="#000000" points="16,-222 16,-274 190,-274 190,-222 16,-222"/>
</g>
<g id="clust4" class="cluster">
<title>cluster_AnchorDemoModule_imports</title>
<polygon fill="none" stroke="#000000" points="198,-222 198,-274 514,-274 514,-222 198,-222"/>
</g>
<g id="clust14" class="cluster">
<title>cluster_AnchorModule</title>
<polygon fill="none" stroke="#000000" stroke-dasharray="1,5" points="530,-290 530,-358 836,-358 836,-290 530,-290"/>
</g>
<g id="clust15" class="cluster">
<title>cluster_AnchorModule_declarations</title>
<polygon fill="none" stroke="#000000" points="688,-298 688,-350 828,-350 828,-298 688,-298"/>
</g>
<g id="clust18" class="cluster">
<title>cluster_AnchorModule_exports</title>
<polygon fill="none" stroke="#000000" points="538,-298 538,-350 680,-350 680,-298 538,-298"/>
</g>
<g id="clust21" class="cluster">
<title>cluster_AppModule</title>
<polygon fill="none" stroke="#000000" stroke-dasharray="1,5" points="1238,-214 1238,-426 2218,-426 2218,-214 1238,-214"/>
</g>
<g id="clust22" class="cluster">
<title>cluster_AppModule_declarations</title>
<polygon fill="none" stroke="#000000" points="1246,-222 1246,-274 1501,-274 1501,-222 1246,-222"/>
</g>
<g id="clust25" class="cluster">
<title>cluster_AppModule_imports</title>
<polygon fill="none" stroke="#000000" points="1509,-222 1509,-274 2210,-274 2210,-222 1509,-222"/>
</g>
<g id="clust27" class="cluster">
<title>cluster_AppModule_bootstrap</title>
<polygon fill="none" stroke="#000000" points="1635,-366 1635,-418 1759,-418 1759,-366 1635,-366"/>
</g>
<g id="clust35" class="cluster">
<title>cluster_AudioDemoModule</title>
<polygon fill="none" stroke="#000000" stroke-dasharray="1,5" points="2594,-214 2594,-350 2974,-350 2974,-214 2594,-214"/>
</g>
<g id="clust36" class="cluster">
<title>cluster_AudioDemoModule_declarations</title>
<polygon fill="none" stroke="#000000" points="2800,-222 2800,-274 2966,-274 2966,-222 2800,-222"/>
</g>
<g id="clust38" class="cluster">
<title>cluster_AudioDemoModule_imports</title>
<polygon fill="none" stroke="#000000" points="2602,-222 2602,-274 2792,-274 2792,-222 2602,-222"/>
</g>
<g id="clust48" class="cluster">
<title>cluster_AudioModule</title>
<polygon fill="none" stroke="#000000" stroke-dasharray="1,5" points="2191,-138 2191,-206 2483,-206 2483,-138 2191,-138"/>
</g>
<g id="clust49" class="cluster">
<title>cluster_AudioModule_declarations</title>
<polygon fill="none" stroke="#000000" points="2343,-146 2343,-198 2475,-198 2475,-146 2343,-146"/>
</g>
<g id="clust52" class="cluster">
<title>cluster_AudioModule_exports</title>
<polygon fill="none" stroke="#000000" points="2199,-146 2199,-198 2335,-198 2335,-146 2199,-146"/>
</g>
<g id="clust55" class="cluster">
<title>cluster_ButtonDemoModule</title>
<polygon fill="none" stroke="#000000" stroke-dasharray="1,5" points="844,-214 844,-350 1230,-350 1230,-214 844,-214"/>
</g>
<g id="clust56" class="cluster">
<title>cluster_ButtonDemoModule_declarations</title>
<polygon fill="none" stroke="#000000" points="1052,-222 1052,-274 1222,-274 1222,-222 1052,-222"/>
</g>
<g id="clust58" class="cluster">
<title>cluster_ButtonDemoModule_imports</title>
<polygon fill="none" stroke="#000000" points="852,-222 852,-274 1044,-274 1044,-222 852,-222"/>
</g>
<g id="clust68" class="cluster">
<title>cluster_ButtonModule</title>
<polygon fill="none" stroke="#000000" stroke-dasharray="1,5" points="1605,-138 1605,-206 1903,-206 1903,-138 1605,-138"/>
</g>
<g id="clust69" class="cluster">
<title>cluster_ButtonModule_declarations</title>
<polygon fill="none" stroke="#000000" points="1759,-146 1759,-198 1895,-198 1895,-146 1759,-146"/>
</g>
<g id="clust72" class="cluster">
<title>cluster_ButtonModule_exports</title>
<polygon fill="none" stroke="#000000" points="1613,-146 1613,-198 1751,-198 1751,-146 1613,-146"/>
</g>
<g id="clust75" class="cluster">
<title>cluster_CoreModule</title>
<polygon fill="none" stroke="#000000" stroke-dasharray="1,5" points="3762,-70 3762,-282 3864,-282 3864,-70 3762,-70"/>
</g>
<g id="clust76" class="cluster">
<title>cluster_CoreModule_declarations</title>
<polygon fill="none" stroke="#000000" points="3778,-78 3778,-130 3848,-130 3848,-78 3778,-78"/>
</g>
<g id="clust79" class="cluster">
<title>cluster_CoreModule_exports</title>
<polygon fill="none" stroke="#000000" points="3778,-222 3778,-274 3848,-274 3848,-222 3778,-222"/>
</g>
<g id="clust82" class="cluster">
<title>cluster_IconDemoModule</title>
<polygon fill="none" stroke="#000000" stroke-dasharray="1,5" points="2226,-214 2226,-350 2586,-350 2586,-214 2226,-214"/>
</g>
<g id="clust83" class="cluster">
<title>cluster_IconDemoModule_declarations</title>
<polygon fill="none" stroke="#000000" points="2422,-222 2422,-274 2578,-274 2578,-222 2422,-222"/>
</g>
<g id="clust85" class="cluster">
<title>cluster_IconDemoModule_imports</title>
<polygon fill="none" stroke="#000000" points="2234,-222 2234,-274 2414,-274 2414,-222 2234,-222"/>
</g>
<g id="clust95" class="cluster">
<title>cluster_IconModule</title>
<polygon fill="none" stroke="#000000" stroke-dasharray="1,5" points="1911,-138 1911,-206 2183,-206 2183,-138 1911,-138"/>
</g>
<g id="clust96" class="cluster">
<title>cluster_IconModule_declarations</title>
<polygon fill="none" stroke="#000000" points="2053,-146 2053,-198 2175,-198 2175,-146 2053,-146"/>
</g>
<g id="clust99" class="cluster">
<title>cluster_IconModule_exports</title>
<polygon fill="none" stroke="#000000" points="1919,-146 1919,-198 2045,-198 2045,-146 1919,-146"/>
</g>
<g id="clust102" class="cluster">
<title>cluster_LabelDemoModule</title>
<polygon fill="none" stroke="#000000" stroke-dasharray="1,5" points="2982,-214 2982,-350 3356,-350 3356,-214 2982,-214"/>
</g>
<g id="clust103" class="cluster">
<title>cluster_LabelDemoModule_declarations</title>
<polygon fill="none" stroke="#000000" points="3184,-222 3184,-274 3348,-274 3348,-222 3184,-222"/>
</g>
<g id="clust105" class="cluster">
<title>cluster_LabelDemoModule_imports</title>
<polygon fill="none" stroke="#000000" points="2990,-222 2990,-274 3176,-274 3176,-222 2990,-222"/>
</g>
<g id="clust115" class="cluster">
<title>cluster_LabelModule</title>
<polygon fill="none" stroke="#000000" stroke-dasharray="1,5" points="1003,-138 1003,-206 1289,-206 1289,-138 1003,-138"/>
</g>
<g id="clust116" class="cluster">
<title>cluster_LabelModule_declarations</title>
<polygon fill="none" stroke="#000000" points="1151,-146 1151,-198 1281,-198 1281,-146 1151,-146"/>
</g>
<g id="clust119" class="cluster">
<title>cluster_LabelModule_exports</title>
<polygon fill="none" stroke="#000000" points="1011,-146 1011,-198 1143,-198 1143,-146 1011,-146"/>
</g>
<g id="clust122" class="cluster">
<title>cluster_PictureDemoModule</title>
<polygon fill="none" stroke="#000000" stroke-dasharray="1,5" points="3364,-214 3364,-350 3754,-350 3754,-214 3364,-214"/>
</g>
<g id="clust123" class="cluster">
<title>cluster_PictureDemoModule_declarations</title>
<polygon fill="none" stroke="#000000" points="3574,-222 3574,-274 3746,-274 3746,-222 3574,-222"/>
</g>
<g id="clust125" class="cluster">
<title>cluster_PictureDemoModule_imports</title>
<polygon fill="none" stroke="#000000" points="3372,-222 3372,-274 3566,-274 3566,-222 3372,-222"/>
</g>
<g id="clust135" class="cluster">
<title>cluster_PictureModule</title>
<polygon fill="none" stroke="#000000" stroke-dasharray="1,5" points="1297,-138 1297,-206 1597,-206 1597,-138 1297,-138"/>
</g>
<g id="clust136" class="cluster">
<title>cluster_PictureModule_declarations</title>
<polygon fill="none" stroke="#000000" points="1453,-146 1453,-198 1589,-198 1589,-146 1453,-146"/>
</g>
<g id="clust139" class="cluster">
<title>cluster_PictureModule_exports</title>
<polygon fill="none" stroke="#000000" points="1305,-146 1305,-198 1445,-198 1445,-146 1305,-146"/>
</g>
<!-- AnchorDemoComponent -->
<g id="node1" class="node">
<title>AnchorDemoComponent</title>
<polygon fill="#ffffb3" stroke="#000000" points="181.5267,-266 24.4733,-266 24.4733,-230 181.5267,-230 181.5267,-266"/>
<text text-anchor="middle" x="103" y="-243.8" font-family="Times,serif" font-size="14.00" fill="#000000">AnchorDemoComponent</text>
</g>
<!-- AnchorDemoModule -->
<g id="node2" class="node">
<title>AnchorDemoModule</title>
<polygon fill="#8dd3c7" stroke="#000000" points="363.7436,-342 360.7436,-346 339.7436,-346 336.7436,-342 228.2564,-342 228.2564,-306 363.7436,-306 363.7436,-342"/>
<text text-anchor="middle" x="296" y="-319.8" font-family="Times,serif" font-size="14.00" fill="#000000">AnchorDemoModule</text>
</g>
<!-- AnchorDemoComponent&#45;&gt;AnchorDemoModule -->
<g id="edge1" class="edge">
<title>AnchorDemoComponent&#45;&gt;AnchorDemoModule</title>
<path fill="none" stroke="#000000" d="M103,-266.0109C103,-288.4852 103,-324 103,-324 103,-324 218.2268,-324 218.2268,-324"/>
<polygon fill="#000000" stroke="#000000" points="218.2268,-327.5001 228.2268,-324 218.2268,-320.5001 218.2268,-327.5001"/>
</g>
<!-- AnchorDemoRoutingModule -->
<g id="node3" class="node">
<title>AnchorDemoRoutingModule</title>
<polygon fill="#8dd3c7" stroke="#000000" points="386.3613,-266 383.3613,-270 362.3613,-270 359.3613,-266 205.6387,-266 205.6387,-230 386.3613,-230 386.3613,-266"/>
<text text-anchor="middle" x="296" y="-243.8" font-family="Times,serif" font-size="14.00" fill="#000000">AnchorDemoRoutingModule</text>
</g>
<!-- AnchorDemoRoutingModule&#45;&gt;AnchorDemoModule -->
<g id="edge2" class="edge">
<title>AnchorDemoRoutingModule&#45;&gt;AnchorDemoModule</title>
<path fill="none" stroke="#000000" d="M296,-266.0109C296,-266.0109 296,-295.855 296,-295.855"/>
<polygon fill="#000000" stroke="#000000" points="292.5001,-295.8549 296,-305.855 299.5001,-295.855 292.5001,-295.8549"/>
</g>
<!-- AnchorModule -->
<g id="node4" class="node">
<title>AnchorModule</title>
<polygon fill="#8dd3c7" stroke="#000000" points="505.5327,-266 502.5327,-270 481.5327,-270 478.5327,-266 404.4673,-266 404.4673,-230 505.5327,-230 505.5327,-266"/>
<text text-anchor="middle" x="455" y="-243.8" font-family="Times,serif" font-size="14.00" fill="#000000">AnchorModule</text>
</g>
<!-- AnchorModule&#45;&gt;AnchorDemoModule -->
<g id="edge3" class="edge">
<title>AnchorModule&#45;&gt;AnchorDemoModule</title>
<path fill="none" stroke="#000000" d="M455,-266.0267C455,-286.7672 455,-318 455,-318 455,-318 373.8915,-318 373.8915,-318"/>
<polygon fill="#000000" stroke="#000000" points="373.8915,-314.5001 363.8915,-318 373.8915,-321.5001 373.8915,-314.5001"/>
</g>
<!-- AnchorComponent  -->
<g id="node6" class="node">
<title>AnchorComponent </title>
<polygon fill="#fb8072" stroke="#000000" points="672.3143,-342 545.6857,-342 545.6857,-306 672.3143,-306 672.3143,-342"/>
<text text-anchor="middle" x="609" y="-319.8" font-family="Times,serif" font-size="14.00" fill="#000000">AnchorComponent </text>
</g>
<!-- AnchorModule&#45;&gt;AnchorComponent  -->
<g id="edge5" class="edge">
<title>AnchorModule&#45;&gt;AnchorComponent </title>
<path fill="none" stroke="#000000" stroke-dasharray="5,2" d="M480.3829,-266.1985C480.3829,-290.3563 480.3829,-330 480.3829,-330 480.3829,-330 535.4451,-330 535.4451,-330"/>
<polygon fill="#000000" stroke="#000000" points="535.4451,-333.5001 545.4451,-330 535.445,-326.5001 535.4451,-333.5001"/>
</g>
<!-- AppModule -->
<g id="node9" class="node">
<title>AppModule</title>
<polygon fill="#8dd3c7" stroke="#000000" points="1738.6571,-342 1735.6571,-346 1714.6571,-346 1711.6571,-342 1655.3429,-342 1655.3429,-306 1738.6571,-306 1738.6571,-342"/>
<text text-anchor="middle" x="1697" y="-319.8" font-family="Times,serif" font-size="14.00" fill="#000000">AppModule</text>
</g>
<!-- AnchorModule&#45;&gt;AppModule -->
<g id="edge10" class="edge">
<title>AnchorModule&#45;&gt;AppModule</title>
<path fill="none" stroke="#000000" d="M429.6171,-266.0555C429.6171,-277.439 429.6171,-290 429.6171,-290 429.6171,-290 1683.0573,-290 1683.0573,-290 1683.0573,-290 1683.0573,-295.8056 1683.0573,-295.8056"/>
<polygon fill="#000000" stroke="#000000" points="1679.5574,-295.8055 1683.0573,-305.8056 1686.5574,-295.8056 1679.5574,-295.8055"/>
</g>
<!-- AnchorComponent -->
<g id="node5" class="node">
<title>AnchorComponent</title>
<polygon fill="#ffffb3" stroke="#000000" points="819.8146,-342 696.1854,-342 696.1854,-306 819.8146,-306 819.8146,-342"/>
<text text-anchor="middle" x="758" y="-319.8" font-family="Times,serif" font-size="14.00" fill="#000000">AnchorComponent</text>
</g>
<!-- AnchorComponent&#45;&gt;AnchorModule -->
<g id="edge4" class="edge">
<title>AnchorComponent&#45;&gt;AnchorModule</title>
<path fill="none" stroke="#000000" d="M758,-305.9891C758,-283.5148 758,-248 758,-248 758,-248 515.7154,-248 515.7154,-248"/>
<polygon fill="#000000" stroke="#000000" points="515.7154,-244.5001 505.7154,-248 515.7154,-251.5001 515.7154,-244.5001"/>
</g>
<!-- AppComponent -->
<g id="node7" class="node">
<title>AppComponent</title>
<polygon fill="#ffffb3" stroke="#000000" points="1492.9399,-266 1387.0601,-266 1387.0601,-230 1492.9399,-230 1492.9399,-266"/>
<text text-anchor="middle" x="1440" y="-243.8" font-family="Times,serif" font-size="14.00" fill="#000000">AppComponent</text>
</g>
<!-- AppComponent&#45;&gt;AppModule -->
<g id="edge6" class="edge">
<title>AppComponent&#45;&gt;AppModule</title>
<path fill="none" stroke="#000000" d="M1440,-266.1532C1440,-289.7566 1440,-328 1440,-328 1440,-328 1645.1365,-328 1645.1365,-328"/>
<polygon fill="#000000" stroke="#000000" points="1645.1366,-331.5001 1655.1365,-328 1645.1365,-324.5001 1645.1366,-331.5001"/>
</g>
<!-- HomeComponent -->
<g id="node8" class="node">
<title>HomeComponent</title>
<polygon fill="#ffffb3" stroke="#000000" points="1369.5451,-266 1254.4549,-266 1254.4549,-230 1369.5451,-230 1369.5451,-266"/>
<text text-anchor="middle" x="1312" y="-243.8" font-family="Times,serif" font-size="14.00" fill="#000000">HomeComponent</text>
</g>
<!-- HomeComponent&#45;&gt;AppModule -->
<g id="edge7" class="edge">
<title>HomeComponent&#45;&gt;AppModule</title>
<path fill="none" stroke="#000000" d="M1312,-266.0265C1312,-291.5093 1312,-335 1312,-335 1312,-335 1645.0654,-335 1645.0654,-335"/>
<polygon fill="#000000" stroke="#000000" points="1645.0654,-338.5001 1655.0654,-335 1645.0653,-331.5001 1645.0654,-338.5001"/>
</g>
<!-- AppComponent  -->
<g id="node16" class="node">
<title>AppComponent </title>
<polygon fill="#80b1d3" stroke="#000000" points="1751.439,-410 1642.561,-410 1642.561,-374 1751.439,-374 1751.439,-410"/>
<text text-anchor="middle" x="1697" y="-387.8" font-family="Times,serif" font-size="14.00" fill="#000000">AppComponent </text>
</g>
<!-- AppModule&#45;&gt;AppComponent  -->
<g id="edge15" class="edge">
<title>AppModule&#45;&gt;AppComponent </title>
<path fill="none" stroke="#000000" stroke-dasharray="1,5" d="M1697,-342.2228C1697,-342.2228 1697,-363.7269 1697,-363.7269"/>
<polygon fill="#000000" stroke="#000000" points="1693.5001,-363.7269 1697,-373.7269 1700.5001,-363.727 1693.5001,-363.7269"/>
</g>
<!-- AppRoutingModule -->
<g id="node10" class="node">
<title>AppRoutingModule</title>
<polygon fill="#8dd3c7" stroke="#000000" points="1761.2744,-266 1758.2744,-270 1737.2744,-270 1734.2744,-266 1632.7256,-266 1632.7256,-230 1761.2744,-230 1761.2744,-266"/>
<text text-anchor="middle" x="1697" y="-243.8" font-family="Times,serif" font-size="14.00" fill="#000000">AppRoutingModule</text>
</g>
<!-- AppRoutingModule&#45;&gt;AppModule -->
<g id="edge8" class="edge">
<title>AppRoutingModule&#45;&gt;AppModule</title>
<path fill="none" stroke="#000000" d="M1710.9427,-266.0109C1710.9427,-266.0109 1710.9427,-295.855 1710.9427,-295.855"/>
<polygon fill="#000000" stroke="#000000" points="1707.4428,-295.8549 1710.9427,-305.855 1714.4428,-295.855 1707.4428,-295.8549"/>
</g>
<!-- ButtonModule -->
<g id="node11" class="node">
<title>ButtonModule</title>
<polygon fill="#8dd3c7" stroke="#000000" points="1614.6682,-266 1611.6682,-270 1590.6682,-270 1587.6682,-266 1517.3318,-266 1517.3318,-230 1614.6682,-230 1614.6682,-266"/>
<text text-anchor="middle" x="1566" y="-243.8" font-family="Times,serif" font-size="14.00" fill="#000000">ButtonModule</text>
</g>
<!-- ButtonModule&#45;&gt;AppModule -->
<g id="edge9" class="edge">
<title>ButtonModule&#45;&gt;AppModule</title>
<path fill="none" stroke="#000000" d="M1582.2779,-266.0449C1582.2779,-287.6623 1582.2779,-321 1582.2779,-321 1582.2779,-321 1645.2582,-321 1645.2582,-321"/>
<polygon fill="#000000" stroke="#000000" points="1645.2582,-324.5001 1655.2582,-321 1645.2581,-317.5001 1645.2582,-324.5001"/>
</g>
<!-- ButtonDemoModule -->
<g id="node23" class="node">
<title>ButtonDemoModule</title>
<polygon fill="#8dd3c7" stroke="#000000" points="1202.8795,-342 1199.8795,-346 1178.8795,-346 1175.8795,-342 1071.1205,-342 1071.1205,-306 1202.8795,-306 1202.8795,-342"/>
<text text-anchor="middle" x="1137" y="-319.8" font-family="Times,serif" font-size="14.00" fill="#000000">ButtonDemoModule</text>
</g>
<!-- ButtonModule&#45;&gt;ButtonDemoModule -->
<g id="edge23" class="edge">
<title>ButtonModule&#45;&gt;ButtonDemoModule</title>
<path fill="none" stroke="#000000" d="M1549.7221,-266.0348C1549.7221,-285.5762 1549.7221,-314 1549.7221,-314 1549.7221,-314 1213.3109,-314 1213.3109,-314"/>
<polygon fill="#000000" stroke="#000000" points="1213.311,-310.5001 1203.3109,-314 1213.3109,-317.5001 1213.311,-310.5001"/>
</g>
<!-- ButtonComponent  -->
<g id="node26" class="node">
<title>ButtonComponent </title>
<polygon fill="#fb8072" stroke="#000000" points="1743.4502,-190 1620.5498,-190 1620.5498,-154 1743.4502,-154 1743.4502,-190"/>
<text text-anchor="middle" x="1682" y="-167.8" font-family="Times,serif" font-size="14.00" fill="#000000">ButtonComponent </text>
</g>
<!-- ButtonModule&#45;&gt;ButtonComponent  -->
<g id="edge25" class="edge">
<title>ButtonModule&#45;&gt;ButtonComponent </title>
<path fill="none" stroke="#000000" stroke-dasharray="5,2" d="M1614.8906,-248C1621.7778,-248 1626.5689,-248 1626.5689,-248 1626.5689,-248 1626.5689,-200.0109 1626.5689,-200.0109"/>
<polygon fill="#000000" stroke="#000000" points="1630.069,-200.0109 1626.5689,-190.0109 1623.069,-200.011 1630.069,-200.0109"/>
</g>
<!-- IconModule -->
<g id="node12" class="node">
<title>IconModule</title>
<polygon fill="#8dd3c7" stroke="#000000" points="2090.4261,-266 2087.4261,-270 2066.4261,-270 2063.4261,-266 2005.5739,-266 2005.5739,-230 2090.4261,-230 2090.4261,-266"/>
<text text-anchor="middle" x="2048" y="-243.8" font-family="Times,serif" font-size="14.00" fill="#000000">IconModule</text>
</g>
<!-- IconModule&#45;&gt;AppModule -->
<g id="edge11" class="edge">
<title>IconModule&#45;&gt;AppModule</title>
<path fill="none" stroke="#000000" d="M2033.9292,-266.1985C2033.9292,-290.3563 2033.9292,-330 2033.9292,-330 2033.9292,-330 1748.9911,-330 1748.9911,-330"/>
<polygon fill="#000000" stroke="#000000" points="1748.9911,-326.5001 1738.9911,-330 1748.991,-333.5001 1748.9911,-326.5001"/>
</g>
<!-- IconDemoModule -->
<g id="node31" class="node">
<title>IconDemoModule</title>
<polygon fill="#8dd3c7" stroke="#000000" points="2383.1374,-342 2380.1374,-346 2359.1374,-346 2356.1374,-342 2264.8626,-342 2264.8626,-306 2383.1374,-306 2383.1374,-342"/>
<text text-anchor="middle" x="2324" y="-319.8" font-family="Times,serif" font-size="14.00" fill="#000000">IconDemoModule</text>
</g>
<!-- IconModule&#45;&gt;IconDemoModule -->
<g id="edge30" class="edge">
<title>IconModule&#45;&gt;IconDemoModule</title>
<path fill="none" stroke="#000000" d="M2062.0708,-266.1686C2062.0708,-285.0898 2062.0708,-312 2062.0708,-312 2062.0708,-312 2254.5642,-312 2254.5642,-312"/>
<polygon fill="#000000" stroke="#000000" points="2254.5643,-315.5001 2264.5642,-312 2254.5642,-308.5001 2254.5643,-315.5001"/>
</g>
<!-- IconComponent  -->
<g id="node34" class="node">
<title>IconComponent </title>
<polygon fill="#fb8072" stroke="#000000" points="2036.708,-190 1927.292,-190 1927.292,-154 2036.708,-154 2036.708,-190"/>
<text text-anchor="middle" x="1982" y="-167.8" font-family="Times,serif" font-size="14.00" fill="#000000">IconComponent </text>
</g>
<!-- IconModule&#45;&gt;IconComponent  -->
<g id="edge32" class="edge">
<title>IconModule&#45;&gt;IconComponent </title>
<path fill="none" stroke="#000000" stroke-dasharray="5,2" d="M2021.3207,-229.9891C2021.3207,-229.9891 2021.3207,-200.145 2021.3207,-200.145"/>
<polygon fill="#000000" stroke="#000000" points="2024.8207,-200.145 2021.3207,-190.145 2017.8207,-200.1451 2024.8207,-200.145"/>
</g>
<!-- AudioModule -->
<g id="node13" class="node">
<title>AudioModule</title>
<polygon fill="#8dd3c7" stroke="#000000" points="2202.0481,-266 2199.0481,-270 2178.0481,-270 2175.0481,-266 2107.9519,-266 2107.9519,-230 2202.0481,-230 2202.0481,-266"/>
<text text-anchor="middle" x="2155" y="-243.8" font-family="Times,serif" font-size="14.00" fill="#000000">AudioModule</text>
</g>
<!-- AudioModule&#45;&gt;AppModule -->
<g id="edge12" class="edge">
<title>AudioModule&#45;&gt;AppModule</title>
<path fill="none" stroke="#000000" d="M2170.7578,-266.2337C2170.7578,-292.0094 2170.7578,-336 2170.7578,-336 2170.7578,-336 1749.0428,-336 1749.0428,-336"/>
<polygon fill="#000000" stroke="#000000" points="1749.0429,-332.5001 1739.0428,-336 1749.0428,-339.5001 1749.0429,-332.5001"/>
</g>
<!-- AudioDemoModule -->
<g id="node18" class="node">
<title>AudioDemoModule</title>
<polygon fill="#8dd3c7" stroke="#000000" points="2761.259,-342 2758.259,-346 2737.259,-346 2734.259,-342 2632.741,-342 2632.741,-306 2761.259,-306 2761.259,-342"/>
<text text-anchor="middle" x="2697" y="-319.8" font-family="Times,serif" font-size="14.00" fill="#000000">AudioDemoModule</text>
</g>
<!-- AudioModule&#45;&gt;AudioDemoModule -->
<g id="edge18" class="edge">
<title>AudioModule&#45;&gt;AudioDemoModule</title>
<path fill="none" stroke="#000000" d="M2139.2422,-266.0511C2139.2422,-280.373 2139.2422,-298 2139.2422,-298 2139.2422,-298 2675.5402,-298 2675.5402,-298 2675.5402,-298 2675.5402,-298.7942 2675.5402,-298.7942"/>
<polygon fill="#000000" stroke="#000000" points="2672.0403,-295.9421 2675.5402,-305.9421 2679.0403,-295.9422 2672.0403,-295.9421"/>
</g>
<!-- AudioComponent  -->
<g id="node21" class="node">
<title>AudioComponent </title>
<polygon fill="#fb8072" stroke="#000000" points="2326.8297,-190 2207.1703,-190 2207.1703,-154 2326.8297,-154 2326.8297,-190"/>
<text text-anchor="middle" x="2267" y="-167.8" font-family="Times,serif" font-size="14.00" fill="#000000">AudioComponent </text>
</g>
<!-- AudioModule&#45;&gt;AudioComponent  -->
<g id="edge20" class="edge">
<title>AudioModule&#45;&gt;AudioComponent </title>
<path fill="none" stroke="#000000" stroke-dasharray="5,2" d="M2202.1977,-248C2214.6109,-248 2224.6039,-248 2224.6039,-248 2224.6039,-248 2224.6039,-200.0109 2224.6039,-200.0109"/>
<polygon fill="#000000" stroke="#000000" points="2228.104,-200.0109 2224.6039,-190.0109 2221.104,-200.011 2228.104,-200.0109"/>
</g>
<!-- LabelModule -->
<g id="node14" class="node">
<title>LabelModule</title>
<polygon fill="#8dd3c7" stroke="#000000" points="1870.9232,-266 1867.9232,-270 1846.9232,-270 1843.9232,-266 1779.0768,-266 1779.0768,-230 1870.9232,-230 1870.9232,-266"/>
<text text-anchor="middle" x="1825" y="-243.8" font-family="Times,serif" font-size="14.00" fill="#000000">LabelModule</text>
</g>
<!-- LabelModule&#45;&gt;AppModule -->
<g id="edge13" class="edge">
<title>LabelModule&#45;&gt;AppModule</title>
<path fill="none" stroke="#000000" d="M1840.237,-266.0267C1840.237,-286.7672 1840.237,-318 1840.237,-318 1840.237,-318 1748.8151,-318 1748.8151,-318"/>
<polygon fill="#000000" stroke="#000000" points="1748.8152,-314.5001 1738.8151,-318 1748.8151,-321.5001 1748.8152,-314.5001"/>
</g>
<!-- LabelDemoModule -->
<g id="node36" class="node">
<title>LabelDemoModule</title>
<polygon fill="#8dd3c7" stroke="#000000" points="3145.6345,-342 3142.6345,-346 3121.6345,-346 3118.6345,-342 3020.3655,-342 3020.3655,-306 3145.6345,-306 3145.6345,-342"/>
<text text-anchor="middle" x="3083" y="-319.8" font-family="Times,serif" font-size="14.00" fill="#000000">LabelDemoModule</text>
</g>
<!-- LabelModule&#45;&gt;LabelDemoModule -->
<g id="edge35" class="edge">
<title>LabelModule&#45;&gt;LabelDemoModule</title>
<path fill="none" stroke="#000000" d="M1809.763,-266.1944C1809.763,-274.2782 1809.763,-282 1809.763,-282 1809.763,-282 3062.061,-282 3062.061,-282 3062.061,-282 3062.061,-295.9445 3062.061,-295.9445"/>
<polygon fill="#000000" stroke="#000000" points="3058.5611,-295.9444 3062.061,-305.9445 3065.5611,-295.9445 3058.5611,-295.9444"/>
</g>
<!-- LabelComponent  -->
<g id="node39" class="node">
<title>LabelComponent </title>
<polygon fill="#fb8072" stroke="#000000" points="1135.2052,-190 1018.7948,-190 1018.7948,-154 1135.2052,-154 1135.2052,-190"/>
<text text-anchor="middle" x="1077" y="-167.8" font-family="Times,serif" font-size="14.00" fill="#000000">LabelComponent </text>
</g>
<!-- LabelModule&#45;&gt;LabelComponent  -->
<g id="edge37" class="edge">
<title>LabelModule&#45;&gt;LabelComponent </title>
<path fill="none" stroke="#000000" stroke-dasharray="5,2" d="M1809.763,-229.9551C1809.763,-222.251 1809.763,-215 1809.763,-215 1809.763,-215 1097.7607,-215 1097.7607,-215 1097.7607,-215 1097.7607,-200.4854 1097.7607,-200.4854"/>
<polygon fill="#000000" stroke="#000000" points="1101.2608,-200.4854 1097.7607,-190.4854 1094.2608,-200.4855 1101.2608,-200.4854"/>
</g>
<!-- PictureModule -->
<g id="node15" class="node">
<title>PictureModule</title>
<polygon fill="#8dd3c7" stroke="#000000" points="1987.7036,-266 1984.7036,-270 1963.7036,-270 1960.7036,-266 1888.2964,-266 1888.2964,-230 1987.7036,-230 1987.7036,-266"/>
<text text-anchor="middle" x="1938" y="-243.8" font-family="Times,serif" font-size="14.00" fill="#000000">PictureModule</text>
</g>
<!-- PictureModule&#45;&gt;AppModule -->
<g id="edge14" class="edge">
<title>PictureModule&#45;&gt;AppModule</title>
<path fill="none" stroke="#000000" d="M1954.5339,-266.0109C1954.5339,-288.4852 1954.5339,-324 1954.5339,-324 1954.5339,-324 1748.6635,-324 1748.6635,-324"/>
<polygon fill="#000000" stroke="#000000" points="1748.6635,-320.5001 1738.6635,-324 1748.6635,-327.5001 1748.6635,-320.5001"/>
</g>
<!-- PictureDemoModule -->
<g id="node41" class="node">
<title>PictureDemoModule</title>
<polygon fill="#8dd3c7" stroke="#000000" points="3535.9158,-342 3532.9158,-346 3511.9158,-346 3508.9158,-342 3402.0842,-342 3402.0842,-306 3535.9158,-306 3535.9158,-342"/>
<text text-anchor="middle" x="3469" y="-319.8" font-family="Times,serif" font-size="14.00" fill="#000000">PictureDemoModule</text>
</g>
<!-- PictureModule&#45;&gt;PictureDemoModule -->
<g id="edge40" class="edge">
<title>PictureModule&#45;&gt;PictureDemoModule</title>
<path fill="none" stroke="#000000" d="M1921.4661,-266.0579C1921.4661,-270.4945 1921.4661,-274 1921.4661,-274 1921.4661,-274 3446.7641,-274 3446.7641,-274 3446.7641,-274 3446.7641,-295.9489 3446.7641,-295.9489"/>
<polygon fill="#000000" stroke="#000000" points="3443.2642,-295.9488 3446.7641,-305.9489 3450.2642,-295.9489 3443.2642,-295.9488"/>
</g>
<!-- PictureComponent  -->
<g id="node44" class="node">
<title>PictureComponent </title>
<polygon fill="#fb8072" stroke="#000000" points="1437.487,-190 1312.513,-190 1312.513,-154 1437.487,-154 1437.487,-190"/>
<text text-anchor="middle" x="1375" y="-167.8" font-family="Times,serif" font-size="14.00" fill="#000000">PictureComponent </text>
</g>
<!-- PictureModule&#45;&gt;PictureComponent  -->
<g id="edge43" class="edge">
<title>PictureModule&#45;&gt;PictureComponent </title>
<path fill="none" stroke="#000000" stroke-dasharray="5,2" d="M1901.3143,-229.5146C1901.3143,-217.8601 1901.3143,-205 1901.3143,-205 1901.3143,-205 1412.2618,-205 1412.2618,-205 1412.2618,-205 1412.2618,-200.0449 1412.2618,-200.0449"/>
<polygon fill="#000000" stroke="#000000" points="1415.7618,-200.0448 1412.2618,-190.0449 1408.7618,-200.0449 1415.7618,-200.0448"/>
</g>
<!-- AudioDemoComponent -->
<g id="node17" class="node">
<title>AudioDemoComponent</title>
<polygon fill="#ffffb3" stroke="#000000" points="2958.0421,-266 2807.9579,-266 2807.9579,-230 2958.0421,-230 2958.0421,-266"/>
<text text-anchor="middle" x="2883" y="-243.8" font-family="Times,serif" font-size="14.00" fill="#000000">AudioDemoComponent</text>
</g>
<!-- AudioDemoComponent&#45;&gt;AudioDemoModule -->
<g id="edge16" class="edge">
<title>AudioDemoComponent&#45;&gt;AudioDemoModule</title>
<path fill="none" stroke="#000000" d="M2883,-266.0109C2883,-288.4852 2883,-324 2883,-324 2883,-324 2771.2711,-324 2771.2711,-324"/>
<polygon fill="#000000" stroke="#000000" points="2771.2711,-320.5001 2761.2711,-324 2771.2711,-327.5001 2771.2711,-320.5001"/>
</g>
<!-- AudioDemoRoutingModule -->
<g id="node19" class="node">
<title>AudioDemoRoutingModule</title>
<polygon fill="#8dd3c7" stroke="#000000" points="2783.8766,-266 2780.8766,-270 2759.8766,-270 2756.8766,-266 2610.1234,-266 2610.1234,-230 2783.8766,-230 2783.8766,-266"/>
<text text-anchor="middle" x="2697" y="-243.8" font-family="Times,serif" font-size="14.00" fill="#000000">AudioDemoRoutingModule</text>
</g>
<!-- AudioDemoRoutingModule&#45;&gt;AudioDemoModule -->
<g id="edge17" class="edge">
<title>AudioDemoRoutingModule&#45;&gt;AudioDemoModule</title>
<path fill="none" stroke="#000000" d="M2718.4598,-266.0109C2718.4598,-266.0109 2718.4598,-295.855 2718.4598,-295.855"/>
<polygon fill="#000000" stroke="#000000" points="2714.9599,-295.8549 2718.4598,-305.855 2721.9599,-295.855 2714.9599,-295.8549"/>
</g>
<!-- AudioComponent -->
<g id="node20" class="node">
<title>AudioComponent</title>
<polygon fill="#ffffb3" stroke="#000000" points="2467.3301,-190 2350.6699,-190 2350.6699,-154 2467.3301,-154 2467.3301,-190"/>
<text text-anchor="middle" x="2409" y="-167.8" font-family="Times,serif" font-size="14.00" fill="#000000">AudioComponent</text>
</g>
<!-- AudioComponent&#45;&gt;AudioModule -->
<g id="edge19" class="edge">
<title>AudioComponent&#45;&gt;AudioModule</title>
<path fill="none" stroke="#000000" d="M2378.3563,-190.2396C2378.3563,-205.5706 2378.3563,-225 2378.3563,-225 2378.3563,-225 2184.6887,-225 2184.6887,-225 2184.6887,-225 2184.6887,-225.4878 2184.6887,-225.4878"/>
<polygon fill="#000000" stroke="#000000" points="2181.1889,-219.8776 2184.6887,-229.8777 2188.1889,-219.8778 2181.1889,-219.8776"/>
</g>
<!-- ButtonDemoComponent -->
<g id="node22" class="node">
<title>ButtonDemoComponent</title>
<polygon fill="#ffffb3" stroke="#000000" points="1213.6624,-266 1060.3376,-266 1060.3376,-230 1213.6624,-230 1213.6624,-266"/>
<text text-anchor="middle" x="1137" y="-243.8" font-family="Times,serif" font-size="14.00" fill="#000000">ButtonDemoComponent</text>
</g>
<!-- ButtonDemoComponent&#45;&gt;ButtonDemoModule -->
<g id="edge21" class="edge">
<title>ButtonDemoComponent&#45;&gt;ButtonDemoModule</title>
<path fill="none" stroke="#000000" d="M1137,-266.0109C1137,-266.0109 1137,-295.855 1137,-295.855"/>
<polygon fill="#000000" stroke="#000000" points="1133.5001,-295.8549 1137,-305.855 1140.5001,-295.855 1133.5001,-295.8549"/>
</g>
<!-- ButtonDemoRoutingModule -->
<g id="node24" class="node">
<title>ButtonDemoRoutingModule</title>
<polygon fill="#8dd3c7" stroke="#000000" points="1036.4972,-266 1033.4972,-270 1012.4972,-270 1009.4972,-266 859.5028,-266 859.5028,-230 1036.4972,-230 1036.4972,-266"/>
<text text-anchor="middle" x="948" y="-243.8" font-family="Times,serif" font-size="14.00" fill="#000000">ButtonDemoRoutingModule</text>
</g>
<!-- ButtonDemoRoutingModule&#45;&gt;ButtonDemoModule -->
<g id="edge22" class="edge">
<title>ButtonDemoRoutingModule&#45;&gt;ButtonDemoModule</title>
<path fill="none" stroke="#000000" d="M948,-266.0109C948,-288.4852 948,-324 948,-324 948,-324 1060.897,-324 1060.897,-324"/>
<polygon fill="#000000" stroke="#000000" points="1060.897,-327.5001 1070.897,-324 1060.8969,-320.5001 1060.897,-327.5001"/>
</g>
<!-- ButtonComponent -->
<g id="node25" class="node">
<title>ButtonComponent</title>
<polygon fill="#ffffb3" stroke="#000000" points="1886.9511,-190 1767.0489,-190 1767.0489,-154 1886.9511,-154 1886.9511,-190"/>
<text text-anchor="middle" x="1827" y="-167.8" font-family="Times,serif" font-size="14.00" fill="#000000">ButtonComponent</text>
</g>
<!-- ButtonComponent&#45;&gt;ButtonModule -->
<g id="edge24" class="edge">
<title>ButtonComponent&#45;&gt;ButtonModule</title>
<path fill="none" stroke="#000000" d="M1773.2819,-190.1467C1773.2819,-203.7395 1773.2819,-220 1773.2819,-220 1773.2819,-220 1598.1634,-220 1598.1634,-220 1598.1634,-220 1598.1634,-220.9793 1598.1634,-220.9793"/>
<polygon fill="#000000" stroke="#000000" points="1594.6635,-219.793 1598.1634,-229.793 1601.6635,-219.7931 1594.6635,-219.793"/>
</g>
<!-- Base -->
<g id="node27" class="node">
<title>Base</title>
<polygon fill="#ffffb3" stroke="#000000" points="3840,-122 3786,-122 3786,-86 3840,-86 3840,-122"/>
<text text-anchor="middle" x="3813" y="-99.8" font-family="Times,serif" font-size="14.00" fill="#000000">Base</text>
</g>
<!-- CoreModule -->
<g id="node28" class="node">
<title>CoreModule</title>
<polygon fill="#8dd3c7" stroke="#000000" points="3856.2619,-190 3853.2619,-194 3832.2619,-194 3829.2619,-190 3769.7381,-190 3769.7381,-154 3856.2619,-154 3856.2619,-190"/>
<text text-anchor="middle" x="3813" y="-167.8" font-family="Times,serif" font-size="14.00" fill="#000000">CoreModule</text>
</g>
<!-- Base&#45;&gt;CoreModule -->
<g id="edge26" class="edge">
<title>Base&#45;&gt;CoreModule</title>
<path fill="none" stroke="#000000" d="M3813,-122.2228C3813,-122.2228 3813,-143.7269 3813,-143.7269"/>
<polygon fill="#000000" stroke="#000000" points="3809.5001,-143.7269 3813,-153.7269 3816.5001,-143.727 3809.5001,-143.7269"/>
</g>
<!-- CoreModule&#45;&gt;PictureModule -->
<g id="edge42" class="edge">
<title>CoreModule&#45;&gt;PictureModule</title>
<path fill="none" stroke="#000000" d="M3777.8096,-190.1223C3777.8096,-192.9729 3777.8096,-195 3777.8096,-195 3777.8096,-195 1957.374,-195 1957.374,-195 1957.374,-195 1957.374,-219.7604 1957.374,-219.7604"/>
<polygon fill="#000000" stroke="#000000" points="1953.874,-219.7604 1957.374,-229.7604 1960.874,-219.7604 1953.874,-219.7604"/>
</g>
<!-- Base  -->
<g id="node29" class="node">
<title>Base </title>
<polygon fill="#fb8072" stroke="#000000" points="3840,-266 3786,-266 3786,-230 3840,-230 3840,-266"/>
<text text-anchor="middle" x="3813" y="-243.8" font-family="Times,serif" font-size="14.00" fill="#000000">Base </text>
</g>
<!-- CoreModule&#45;&gt;Base  -->
<g id="edge27" class="edge">
<title>CoreModule&#45;&gt;Base </title>
<path fill="none" stroke="#000000" stroke-dasharray="5,2" d="M3813,-190.0109C3813,-190.0109 3813,-219.855 3813,-219.855"/>
<polygon fill="#000000" stroke="#000000" points="3809.5001,-219.8549 3813,-229.855 3816.5001,-219.855 3809.5001,-219.8549"/>
</g>
<!-- IconDemoComponent -->
<g id="node30" class="node">
<title>IconDemoComponent</title>
<polygon fill="#ffffb3" stroke="#000000" points="2570.42,-266 2429.58,-266 2429.58,-230 2570.42,-230 2570.42,-266"/>
<text text-anchor="middle" x="2500" y="-243.8" font-family="Times,serif" font-size="14.00" fill="#000000">IconDemoComponent</text>
</g>
<!-- IconDemoComponent&#45;&gt;IconDemoModule -->
<g id="edge28" class="edge">
<title>IconDemoComponent&#45;&gt;IconDemoModule</title>
<path fill="none" stroke="#000000" d="M2500,-266.0109C2500,-288.4852 2500,-324 2500,-324 2500,-324 2393.5856,-324 2393.5856,-324"/>
<polygon fill="#000000" stroke="#000000" points="2393.5856,-320.5001 2383.5856,-324 2393.5855,-327.5001 2393.5856,-320.5001"/>
</g>
<!-- IconDemoRoutingModule -->
<g id="node32" class="node">
<title>IconDemoRoutingModule</title>
<polygon fill="#8dd3c7" stroke="#000000" points="2405.7548,-266 2402.7548,-270 2381.7548,-270 2378.7548,-266 2242.2452,-266 2242.2452,-230 2405.7548,-230 2405.7548,-266"/>
<text text-anchor="middle" x="2324" y="-243.8" font-family="Times,serif" font-size="14.00" fill="#000000">IconDemoRoutingModule</text>
</g>
<!-- IconDemoRoutingModule&#45;&gt;IconDemoModule -->
<g id="edge29" class="edge">
<title>IconDemoRoutingModule&#45;&gt;IconDemoModule</title>
<path fill="none" stroke="#000000" d="M2324,-266.0109C2324,-266.0109 2324,-295.855 2324,-295.855"/>
<polygon fill="#000000" stroke="#000000" points="2320.5001,-295.8549 2324,-305.855 2327.5001,-295.855 2320.5001,-295.8549"/>
</g>
<!-- IconComponent -->
<g id="node33" class="node">
<title>IconComponent</title>
<polygon fill="#ffffb3" stroke="#000000" points="2167.2078,-190 2060.7922,-190 2060.7922,-154 2167.2078,-154 2167.2078,-190"/>
<text text-anchor="middle" x="2114" y="-167.8" font-family="Times,serif" font-size="14.00" fill="#000000">IconComponent</text>
</g>
<!-- IconComponent&#45;&gt;IconModule -->
<g id="edge31" class="edge">
<title>IconComponent&#45;&gt;IconModule</title>
<path fill="none" stroke="#000000" d="M2075.5544,-190.0109C2075.5544,-190.0109 2075.5544,-219.855 2075.5544,-219.855"/>
<polygon fill="#000000" stroke="#000000" points="2072.0544,-219.8549 2075.5544,-229.855 2079.0544,-219.855 2072.0544,-219.8549"/>
</g>
<!-- LabelDemoComponent -->
<g id="node35" class="node">
<title>LabelDemoComponent</title>
<polygon fill="#ffffb3" stroke="#000000" points="3339.9172,-266 3192.0828,-266 3192.0828,-230 3339.9172,-230 3339.9172,-266"/>
<text text-anchor="middle" x="3266" y="-243.8" font-family="Times,serif" font-size="14.00" fill="#000000">LabelDemoComponent</text>
</g>
<!-- LabelDemoComponent&#45;&gt;LabelDemoModule -->
<g id="edge33" class="edge">
<title>LabelDemoComponent&#45;&gt;LabelDemoModule</title>
<path fill="none" stroke="#000000" d="M3266,-266.0109C3266,-288.4852 3266,-324 3266,-324 3266,-324 3155.7222,-324 3155.7222,-324"/>
<polygon fill="#000000" stroke="#000000" points="3155.7222,-320.5001 3145.7222,-324 3155.7222,-327.5001 3155.7222,-320.5001"/>
</g>
<!-- LabelDemoRoutingModule -->
<g id="node37" class="node">
<title>LabelDemoRoutingModule</title>
<polygon fill="#8dd3c7" stroke="#000000" points="3168.252,-266 3165.252,-270 3144.252,-270 3141.252,-266 2997.748,-266 2997.748,-230 3168.252,-230 3168.252,-266"/>
<text text-anchor="middle" x="3083" y="-243.8" font-family="Times,serif" font-size="14.00" fill="#000000">LabelDemoRoutingModule</text>
</g>
<!-- LabelDemoRoutingModule&#45;&gt;LabelDemoModule -->
<g id="edge34" class="edge">
<title>LabelDemoRoutingModule&#45;&gt;LabelDemoModule</title>
<path fill="none" stroke="#000000" d="M3103.939,-266.0109C3103.939,-266.0109 3103.939,-295.855 3103.939,-295.855"/>
<polygon fill="#000000" stroke="#000000" points="3100.4391,-295.8549 3103.939,-305.855 3107.4391,-295.855 3100.4391,-295.8549"/>
</g>
<!-- LabelComponent -->
<g id="node38" class="node">
<title>LabelComponent</title>
<polygon fill="#ffffb3" stroke="#000000" points="1272.705,-190 1159.295,-190 1159.295,-154 1272.705,-154 1272.705,-190"/>
<text text-anchor="middle" x="1216" y="-167.8" font-family="Times,serif" font-size="14.00" fill="#000000">LabelComponent</text>
</g>
<!-- LabelComponent&#45;&gt;LabelModule -->
<g id="edge36" class="edge">
<title>LabelComponent&#45;&gt;LabelModule</title>
<path fill="none" stroke="#000000" d="M1263.4152,-190.1097C1263.4152,-199.897 1263.4152,-210 1263.4152,-210 1263.4152,-210 1840.237,-210 1840.237,-210 1840.237,-210 1840.237,-219.8903 1840.237,-219.8903"/>
<polygon fill="#000000" stroke="#000000" points="1836.7371,-219.8903 1840.237,-229.8903 1843.7371,-219.8904 1836.7371,-219.8903"/>
</g>
<!-- PictureDemoComponent -->
<g id="node40" class="node">
<title>PictureDemoComponent</title>
<polygon fill="#ffffb3" stroke="#000000" points="3737.6979,-266 3582.3021,-266 3582.3021,-230 3737.6979,-230 3737.6979,-266"/>
<text text-anchor="middle" x="3660" y="-243.8" font-family="Times,serif" font-size="14.00" fill="#000000">PictureDemoComponent</text>
</g>
<!-- PictureDemoComponent&#45;&gt;PictureDemoModule -->
<g id="edge38" class="edge">
<title>PictureDemoComponent&#45;&gt;PictureDemoModule</title>
<path fill="none" stroke="#000000" d="M3660,-266.0109C3660,-288.4852 3660,-324 3660,-324 3660,-324 3545.8025,-324 3545.8025,-324"/>
<polygon fill="#000000" stroke="#000000" points="3545.8026,-320.5001 3535.8025,-324 3545.8025,-327.5001 3545.8026,-320.5001"/>
</g>
<!-- PictureDemoRoutingModule -->
<g id="node42" class="node">
<title>PictureDemoRoutingModule</title>
<polygon fill="#8dd3c7" stroke="#000000" points="3558.0336,-266 3555.0336,-270 3534.0336,-270 3531.0336,-266 3379.9664,-266 3379.9664,-230 3558.0336,-230 3558.0336,-266"/>
<text text-anchor="middle" x="3469" y="-243.8" font-family="Times,serif" font-size="14.00" fill="#000000">PictureDemoRoutingModule</text>
</g>
<!-- PictureDemoRoutingModule&#45;&gt;PictureDemoModule -->
<g id="edge39" class="edge">
<title>PictureDemoRoutingModule&#45;&gt;PictureDemoModule</title>
<path fill="none" stroke="#000000" d="M3491.2359,-266.0109C3491.2359,-266.0109 3491.2359,-295.855 3491.2359,-295.855"/>
<polygon fill="#000000" stroke="#000000" points="3487.736,-295.8549 3491.2359,-305.855 3494.736,-295.855 3487.736,-295.8549"/>
</g>
<!-- PictureComponent -->
<g id="node43" class="node">
<title>PictureComponent</title>
<polygon fill="#ffffb3" stroke="#000000" points="1581.486,-190 1460.514,-190 1460.514,-154 1581.486,-154 1581.486,-190"/>
<text text-anchor="middle" x="1521" y="-167.8" font-family="Times,serif" font-size="14.00" fill="#000000">PictureComponent</text>
</g>
<!-- PictureComponent&#45;&gt;PictureModule -->
<g id="edge41" class="edge">
<title>PictureComponent&#45;&gt;PictureModule</title>
<path fill="none" stroke="#000000" d="M1549.3296,-190.207C1549.3296,-195.5549 1549.3296,-200 1549.3296,-200 1549.3296,-200 1914.2302,-200 1914.2302,-200 1914.2302,-200 1914.2302,-219.8533 1914.2302,-219.8533"/>
<polygon fill="#000000" stroke="#000000" points="1910.7303,-219.8532 1914.2302,-229.8533 1917.7303,-219.8533 1910.7303,-219.8532"/>
</g>
</g>
</svg>
