<?xml version="1.0" encoding="UTF-8" standalone="no"?>
<!DOCTYPE svg PUBLIC "-//W3C//DTD SVG 1.1//EN"
 "http://www.w3.org/Graphics/SVG/1.1/DTD/svg11.dtd">
<!-- Generated by graphviz version 2.40.1 (20161225.0304)
 -->
<!-- Title: dependencies Pages: 1 -->
<svg width="974pt" height="284pt"
 viewBox="0.00 0.00 974.00 284.00" xmlns="http://www.w3.org/2000/svg" xmlns:xlink="http://www.w3.org/1999/xlink">
<g id="graph0" class="graph" transform="scale(1 1) rotate(0) translate(4 280)">
<title>dependencies</title>
<polygon fill="#ffffff" stroke="transparent" points="-4,4 -4,-280 970,-280 970,4 -4,4"/>
<text text-anchor="start" x="462.0091" y="-42.4" font-family="sans-serif" font-weight="bold" font-size="14.00" fill="#000000">Legend</text>
<polygon fill="#ffffb3" stroke="transparent" points="249,-10 249,-30 269,-30 269,-10 249,-10"/>
<text text-anchor="start" x="272.629" y="-15.4" font-family="sans-serif" font-size="14.00" fill="#000000"> &#160;Declarations</text>
<polygon fill="#8dd3c7" stroke="transparent" points="362,-10 362,-30 382,-30 382,-10 362,-10"/>
<text text-anchor="start" x="385.7251" y="-15.4" font-family="sans-serif" font-size="14.00" fill="#000000"> &#160;Module</text>
<polygon fill="#80b1d3" stroke="transparent" points="448,-10 448,-30 468,-30 468,-10 448,-10"/>
<text text-anchor="start" x="471.7812" y="-15.4" font-family="sans-serif" font-size="14.00" fill="#000000"> &#160;Bootstrap</text>
<polygon fill="#fdb462" stroke="transparent" points="545,-10 545,-30 565,-30 565,-10 545,-10"/>
<text text-anchor="start" x="568.6732" y="-15.4" font-family="sans-serif" font-size="14.00" fill="#000000"> &#160;Providers</text>
<polygon fill="#fb8072" stroke="transparent" points="641,-10 641,-30 661,-30 661,-10 641,-10"/>
<text text-anchor="start" x="664.7258" y="-15.4" font-family="sans-serif" font-size="14.00" fill="#000000"> &#160;Exports</text>
<g id="clust1" class="cluster">
<title>cluster_AnchorModule</title>
<polygon fill="none" stroke="#000000" stroke-dasharray="1,5" points="8,-70 8,-268 166,-268 166,-70 8,-70"/>
</g>
<g id="clust2" class="cluster">
<title>cluster_AnchorModule_declarations</title>
<polygon fill="none" stroke="#000000" points="17,-78 17,-130 157,-130 157,-78 17,-78"/>
</g>
<g id="clust5" class="cluster">
<title>cluster_AnchorModule_exports</title>
<polygon fill="none" stroke="#000000" points="16,-208 16,-260 158,-260 158,-208 16,-208"/>
</g>
<g id="clust8" class="cluster">
<title>cluster_AudioModule</title>
<polygon fill="none" stroke="#000000" stroke-dasharray="1,5" points="174,-70 174,-268 326,-268 326,-70 174,-70"/>
</g>
<g id="clust9" class="cluster">
<title>cluster_AudioModule_declarations</title>
<polygon fill="none" stroke="#000000" points="184,-78 184,-130 316,-130 316,-78 184,-78"/>
</g>
<g id="clust12" class="cluster">
<title>cluster_AudioModule_exports</title>
<polygon fill="none" stroke="#000000" points="182,-208 182,-260 318,-260 318,-208 182,-208"/>
</g>
<g id="clust15" class="cluster">
<title>cluster_ButtonModule</title>
<polygon fill="none" stroke="#000000" stroke-dasharray="1,5" points="334,-70 334,-268 488,-268 488,-70 334,-70"/>
</g>
<g id="clust16" class="cluster">
<title>cluster_ButtonModule_declarations</title>
<polygon fill="none" stroke="#000000" points="343,-78 343,-130 479,-130 479,-78 343,-78"/>
</g>
<g id="clust19" class="cluster">
<title>cluster_ButtonModule_exports</title>
<polygon fill="none" stroke="#000000" points="342,-208 342,-260 480,-260 480,-208 342,-208"/>
</g>
<g id="clust22" class="cluster">
<title>cluster_IconModule</title>
<polygon fill="none" stroke="#000000" stroke-dasharray="1,5" points="496,-70 496,-268 638,-268 638,-70 496,-70"/>
</g>
<g id="clust23" class="cluster">
<title>cluster_IconModule_declarations</title>
<polygon fill="none" stroke="#000000" points="506,-78 506,-130 628,-130 628,-78 506,-78"/>
</g>
<g id="clust26" class="cluster">
<title>cluster_IconModule_exports</title>
<polygon fill="none" stroke="#000000" points="504,-208 504,-260 630,-260 630,-208 504,-208"/>
</g>
<g id="clust29" class="cluster">
<title>cluster_LabelModule</title>
<polygon fill="none" stroke="#000000" stroke-dasharray="1,5" points="646,-70 646,-268 794,-268 794,-70 646,-70"/>
</g>
<g id="clust30" class="cluster">
<title>cluster_LabelModule_declarations</title>
<polygon fill="none" stroke="#000000" points="655,-78 655,-130 785,-130 785,-78 655,-78"/>
</g>
<g id="clust33" class="cluster">
<title>cluster_LabelModule_exports</title>
<polygon fill="none" stroke="#000000" points="654,-208 654,-260 786,-260 786,-208 654,-208"/>
</g>
<g id="clust36" class="cluster">
<title>cluster_PictureModule</title>
<polygon fill="none" stroke="#000000" stroke-dasharray="1,5" points="802,-70 802,-268 958,-268 958,-70 802,-70"/>
</g>
<g id="clust37" class="cluster">
<title>cluster_PictureModule_declarations</title>
<polygon fill="none" stroke="#000000" points="812,-78 812,-130 948,-130 948,-78 812,-78"/>
</g>
<g id="clust40" class="cluster">
<title>cluster_PictureModule_exports</title>
<polygon fill="none" stroke="#000000" points="810,-208 810,-260 950,-260 950,-208 810,-208"/>
</g>
<!-- AnchorComponent -->
<g id="node1" class="node">
<title>AnchorComponent</title>
<polygon fill="#ffffb3" stroke="#000000" points="148.8146,-122 25.1854,-122 25.1854,-86 148.8146,-86 148.8146,-122"/>
<text text-anchor="middle" x="87" y="-99.8" font-family="Times,serif" font-size="14.00" fill="#000000">AnchorComponent</text>
</g>
<!-- AnchorModule -->
<g id="node2" class="node">
<title>AnchorModule</title>
<polygon fill="#8dd3c7" stroke="#000000" points="137.5327,-187 134.5327,-191 113.5327,-191 110.5327,-187 36.4673,-187 36.4673,-151 137.5327,-151 137.5327,-187"/>
<text text-anchor="middle" x="87" y="-164.8" font-family="Times,serif" font-size="14.00" fill="#000000">AnchorModule</text>
</g>
<!-- AnchorComponent&#45;&gt;AnchorModule -->
<g id="edge1" class="edge">
<title>AnchorComponent&#45;&gt;AnchorModule</title>
<path fill="none" stroke="#000000" d="M87,-122.1061C87,-122.1061 87,-140.991 87,-140.991"/>
<polygon fill="#000000" stroke="#000000" points="83.5001,-140.9909 87,-150.991 90.5001,-140.991 83.5001,-140.9909"/>
</g>
<!-- AnchorComponent  -->
<g id="node3" class="node">
<title>AnchorComponent </title>
<polygon fill="#fb8072" stroke="#000000" points="150.3143,-252 23.6857,-252 23.6857,-216 150.3143,-216 150.3143,-252"/>
<text text-anchor="middle" x="87" y="-229.8" font-family="Times,serif" font-size="14.00" fill="#000000">AnchorComponent </text>
</g>
<!-- AnchorModule&#45;&gt;AnchorComponent  -->
<g id="edge2" class="edge">
<title>AnchorModule&#45;&gt;AnchorComponent </title>
<path fill="none" stroke="#000000" stroke-dasharray="5,2" d="M87,-187.1061C87,-187.1061 87,-205.991 87,-205.991"/>
<polygon fill="#000000" stroke="#000000" points="83.5001,-205.9909 87,-215.991 90.5001,-205.991 83.5001,-205.9909"/>
</g>
<!-- AudioComponent -->
<g id="node4" class="node">
<title>AudioComponent</title>
<polygon fill="#ffffb3" stroke="#000000" points="308.3301,-122 191.6699,-122 191.6699,-86 308.3301,-86 308.3301,-122"/>
<text text-anchor="middle" x="250" y="-99.8" font-family="Times,serif" font-size="14.00" fill="#000000">AudioComponent</text>
</g>
<!-- AudioModule -->
<g id="node5" class="node">
<title>AudioModule</title>
<polygon fill="#8dd3c7" stroke="#000000" points="297.0481,-187 294.0481,-191 273.0481,-191 270.0481,-187 202.9519,-187 202.9519,-151 297.0481,-151 297.0481,-187"/>
<text text-anchor="middle" x="250" y="-164.8" font-family="Times,serif" font-size="14.00" fill="#000000">AudioModule</text>
</g>
<!-- AudioComponent&#45;&gt;AudioModule -->
<g id="edge3" class="edge">
<title>AudioComponent&#45;&gt;AudioModule</title>
<path fill="none" stroke="#000000" d="M250,-122.1061C250,-122.1061 250,-140.991 250,-140.991"/>
<polygon fill="#000000" stroke="#000000" points="246.5001,-140.9909 250,-150.991 253.5001,-140.991 246.5001,-140.9909"/>
</g>
<!-- AudioComponent  -->
<g id="node6" class="node">
<title>AudioComponent </title>
<polygon fill="#fb8072" stroke="#000000" points="309.8297,-252 190.1703,-252 190.1703,-216 309.8297,-216 309.8297,-252"/>
<text text-anchor="middle" x="250" y="-229.8" font-family="Times,serif" font-size="14.00" fill="#000000">AudioComponent </text>
</g>
<!-- AudioModule&#45;&gt;AudioComponent  -->
<g id="edge4" class="edge">
<title>AudioModule&#45;&gt;AudioComponent </title>
<path fill="none" stroke="#000000" stroke-dasharray="5,2" d="M250,-187.1061C250,-187.1061 250,-205.991 250,-205.991"/>
<polygon fill="#000000" stroke="#000000" points="246.5001,-205.9909 250,-215.991 253.5001,-205.991 246.5001,-205.9909"/>
</g>
<!-- ButtonComponent -->
<g id="node7" class="node">
<title>ButtonComponent</title>
<polygon fill="#ffffb3" stroke="#000000" points="470.9511,-122 351.0489,-122 351.0489,-86 470.9511,-86 470.9511,-122"/>
<text text-anchor="middle" x="411" y="-99.8" font-family="Times,serif" font-size="14.00" fill="#000000">ButtonComponent</text>
</g>
<!-- ButtonModule -->
<g id="node8" class="node">
<title>ButtonModule</title>
<polygon fill="#8dd3c7" stroke="#000000" points="459.6682,-187 456.6682,-191 435.6682,-191 432.6682,-187 362.3318,-187 362.3318,-151 459.6682,-151 459.6682,-187"/>
<text text-anchor="middle" x="411" y="-164.8" font-family="Times,serif" font-size="14.00" fill="#000000">ButtonModule</text>
</g>
<!-- ButtonComponent&#45;&gt;ButtonModule -->
<g id="edge5" class="edge">
<title>ButtonComponent&#45;&gt;ButtonModule</title>
<path fill="none" stroke="#000000" d="M411,-122.1061C411,-122.1061 411,-140.991 411,-140.991"/>
<polygon fill="#000000" stroke="#000000" points="407.5001,-140.9909 411,-150.991 414.5001,-140.991 407.5001,-140.9909"/>
</g>
<!-- ButtonComponent  -->
<g id="node9" class="node">
<title>ButtonComponent </title>
<polygon fill="#fb8072" stroke="#000000" points="472.4502,-252 349.5498,-252 349.5498,-216 472.4502,-216 472.4502,-252"/>
<text text-anchor="middle" x="411" y="-229.8" font-family="Times,serif" font-size="14.00" fill="#000000">ButtonComponent </text>
</g>
<!-- ButtonModule&#45;&gt;ButtonComponent  -->
<g id="edge6" class="edge">
<title>ButtonModule&#45;&gt;ButtonComponent </title>
<path fill="none" stroke="#000000" stroke-dasharray="5,2" d="M411,-187.1061C411,-187.1061 411,-205.991 411,-205.991"/>
<polygon fill="#000000" stroke="#000000" points="407.5001,-205.9909 411,-215.991 414.5001,-205.991 407.5001,-205.9909"/>
</g>
<!-- IconComponent -->
<g id="node10" class="node">
<title>IconComponent</title>
<polygon fill="#ffffb3" stroke="#000000" points="620.2078,-122 513.7922,-122 513.7922,-86 620.2078,-86 620.2078,-122"/>
<text text-anchor="middle" x="567" y="-99.8" font-family="Times,serif" font-size="14.00" fill="#000000">IconComponent</text>
</g>
<!-- IconModule -->
<g id="node11" class="node">
<title>IconModule</title>
<polygon fill="#8dd3c7" stroke="#000000" points="609.4261,-187 606.4261,-191 585.4261,-191 582.4261,-187 524.5739,-187 524.5739,-151 609.4261,-151 609.4261,-187"/>
<text text-anchor="middle" x="567" y="-164.8" font-family="Times,serif" font-size="14.00" fill="#000000">IconModule</text>
</g>
<!-- IconComponent&#45;&gt;IconModule -->
<g id="edge7" class="edge">
<title>IconComponent&#45;&gt;IconModule</title>
<path fill="none" stroke="#000000" d="M567,-122.1061C567,-122.1061 567,-140.991 567,-140.991"/>
<polygon fill="#000000" stroke="#000000" points="563.5001,-140.9909 567,-150.991 570.5001,-140.991 563.5001,-140.9909"/>
</g>
<!-- IconComponent  -->
<g id="node12" class="node">
<title>IconComponent </title>
<polygon fill="#fb8072" stroke="#000000" points="621.708,-252 512.292,-252 512.292,-216 621.708,-216 621.708,-252"/>
<text text-anchor="middle" x="567" y="-229.8" font-family="Times,serif" font-size="14.00" fill="#000000">IconComponent </text>
</g>
<!-- IconModule&#45;&gt;IconComponent  -->
<g id="edge8" class="edge">
<title>IconModule&#45;&gt;IconComponent </title>
<path fill="none" stroke="#000000" stroke-dasharray="5,2" d="M567,-187.1061C567,-187.1061 567,-205.991 567,-205.991"/>
<polygon fill="#000000" stroke="#000000" points="563.5001,-205.9909 567,-215.991 570.5001,-205.991 563.5001,-205.9909"/>
</g>
<!-- LabelComponent -->
<g id="node13" class="node">
<title>LabelComponent</title>
<polygon fill="#ffffb3" stroke="#000000" points="776.705,-122 663.295,-122 663.295,-86 776.705,-86 776.705,-122"/>
<text text-anchor="middle" x="720" y="-99.8" font-family="Times,serif" font-size="14.00" fill="#000000">LabelComponent</text>
</g>
<!-- LabelModule -->
<g id="node14" class="node">
<title>LabelModule</title>
<polygon fill="#8dd3c7" stroke="#000000" points="765.9232,-187 762.9232,-191 741.9232,-191 738.9232,-187 674.0768,-187 674.0768,-151 765.9232,-151 765.9232,-187"/>
<text text-anchor="middle" x="720" y="-164.8" font-family="Times,serif" font-size="14.00" fill="#000000">LabelModule</text>
</g>
<!-- LabelComponent&#45;&gt;LabelModule -->
<g id="edge9" class="edge">
<title>LabelComponent&#45;&gt;LabelModule</title>
<path fill="none" stroke="#000000" d="M720,-122.1061C720,-122.1061 720,-140.991 720,-140.991"/>
<polygon fill="#000000" stroke="#000000" points="716.5001,-140.9909 720,-150.991 723.5001,-140.991 716.5001,-140.9909"/>
</g>
<!-- LabelComponent  -->
<g id="node15" class="node">
<title>LabelComponent </title>
<polygon fill="#fb8072" stroke="#000000" points="778.2052,-252 661.7948,-252 661.7948,-216 778.2052,-216 778.2052,-252"/>
<text text-anchor="middle" x="720" y="-229.8" font-family="Times,serif" font-size="14.00" fill="#000000">LabelComponent </text>
</g>
<!-- LabelModule&#45;&gt;LabelComponent  -->
<g id="edge10" class="edge">
<title>LabelModule&#45;&gt;LabelComponent </title>
<path fill="none" stroke="#000000" stroke-dasharray="5,2" d="M720,-187.1061C720,-187.1061 720,-205.991 720,-205.991"/>
<polygon fill="#000000" stroke="#000000" points="716.5001,-205.9909 720,-215.991 723.5001,-205.991 716.5001,-205.9909"/>
</g>
<!-- PictureComponent -->
<g id="node16" class="node">
<title>PictureComponent</title>
<polygon fill="#ffffb3" stroke="#000000" points="940.486,-122 819.514,-122 819.514,-86 940.486,-86 940.486,-122"/>
<text text-anchor="middle" x="880" y="-99.8" font-family="Times,serif" font-size="14.00" fill="#000000">PictureComponent</text>
</g>
<!-- PictureModule -->
<g id="node17" class="node">
<title>PictureModule</title>
<polygon fill="#8dd3c7" stroke="#000000" points="929.7036,-187 926.7036,-191 905.7036,-191 902.7036,-187 830.2964,-187 830.2964,-151 929.7036,-151 929.7036,-187"/>
<text text-anchor="middle" x="880" y="-164.8" font-family="Times,serif" font-size="14.00" fill="#000000">PictureModule</text>
</g>
<!-- PictureComponent&#45;&gt;PictureModule -->
<g id="edge11" class="edge">
<title>PictureComponent&#45;&gt;PictureModule</title>
<path fill="none" stroke="#000000" d="M880,-122.1061C880,-122.1061 880,-140.991 880,-140.991"/>
<polygon fill="#000000" stroke="#000000" points="876.5001,-140.9909 880,-150.991 883.5001,-140.991 876.5001,-140.9909"/>
</g>
<!-- PictureComponent  -->
<g id="node18" class="node">
<title>PictureComponent </title>
<polygon fill="#fb8072" stroke="#000000" points="942.487,-252 817.513,-252 817.513,-216 942.487,-216 942.487,-252"/>
<text text-anchor="middle" x="880" y="-229.8" font-family="Times,serif" font-size="14.00" fill="#000000">PictureComponent </text>
</g>
<!-- PictureModule&#45;&gt;PictureComponent  -->
<g id="edge12" class="edge">
<title>PictureModule&#45;&gt;PictureComponent </title>
<path fill="none" stroke="#000000" stroke-dasharray="5,2" d="M880,-187.1061C880,-187.1061 880,-205.991 880,-205.991"/>
<polygon fill="#000000" stroke="#000000" points="876.5001,-205.9909 880,-215.991 883.5001,-205.991 876.5001,-205.9909"/>
</g>
</g>
</svg>
