<?xml version="1.0" encoding="UTF-8" standalone="no"?>
<!DOCTYPE svg PUBLIC "-//W3C//DTD SVG 1.1//EN"
 "http://www.w3.org/Graphics/SVG/1.1/DTD/svg11.dtd">
<!-- Generated by graphviz version 2.40.1 (20161225.0304)
 -->
<!-- Title: dependencies Pages: 1 -->
<svg width="2751pt" height="358pt"
 viewBox="0.00 0.00 2751.00 358.00" xmlns="http://www.w3.org/2000/svg" xmlns:xlink="http://www.w3.org/1999/xlink">
<g id="graph0" class="graph" transform="scale(1 1) rotate(0) translate(4 354)">
<title>dependencies</title>
<polygon fill="#ffffff" stroke="transparent" points="-4,4 -4,-354 2747,-354 2747,4 -4,4"/>
<text text-anchor="start" x="1350.5091" y="-42.4" font-family="sans-serif" font-weight="bold" font-size="14.00" fill="#000000">Legend</text>
<polygon fill="#ffffb3" stroke="transparent" points="1137.5,-10 1137.5,-30 1157.5,-30 1157.5,-10 1137.5,-10"/>
<text text-anchor="start" x="1161.129" y="-15.4" font-family="sans-serif" font-size="14.00" fill="#000000"> &#160;Declarations</text>
<polygon fill="#8dd3c7" stroke="transparent" points="1250.5,-10 1250.5,-30 1270.5,-30 1270.5,-10 1250.5,-10"/>
<text text-anchor="start" x="1274.2251" y="-15.4" font-family="sans-serif" font-size="14.00" fill="#000000"> &#160;Module</text>
<polygon fill="#80b1d3" stroke="transparent" points="1336.5,-10 1336.5,-30 1356.5,-30 1356.5,-10 1336.5,-10"/>
<text text-anchor="start" x="1360.2812" y="-15.4" font-family="sans-serif" font-size="14.00" fill="#000000"> &#160;Bootstrap</text>
<polygon fill="#fdb462" stroke="transparent" points="1433.5,-10 1433.5,-30 1453.5,-30 1453.5,-10 1433.5,-10"/>
<text text-anchor="start" x="1457.1732" y="-15.4" font-family="sans-serif" font-size="14.00" fill="#000000"> &#160;Providers</text>
<polygon fill="#fb8072" stroke="transparent" points="1529.5,-10 1529.5,-30 1549.5,-30 1549.5,-10 1529.5,-10"/>
<text text-anchor="start" x="1553.2258" y="-15.4" font-family="sans-serif" font-size="14.00" fill="#000000"> &#160;Exports</text>
<g id="clust1" class="cluster">
<title>cluster_AnchorModule</title>
<polygon fill="none" stroke="#000000" stroke-dasharray="1,5" points="8,-70 8,-274 300,-274 300,-70 8,-70"/>
</g>
<g id="clust2" class="cluster">
<title>cluster_AnchorModule_declarations</title>
<polygon fill="none" stroke="#000000" points="16,-78 16,-130 156,-130 156,-78 16,-78"/>
</g>
<g id="clust4" class="cluster">
<title>cluster_AnchorModule_imports</title>
<polygon fill="none" stroke="#000000" points="164,-78 164,-130 292,-130 292,-78 164,-78"/>
</g>
<g id="clust5" class="cluster">
<title>cluster_AnchorModule_exports</title>
<polygon fill="none" stroke="#000000" points="150,-214 150,-266 292,-266 292,-214 150,-214"/>
</g>
<g id="clust8" class="cluster">
<title>cluster_AppModule</title>
<polygon fill="none" stroke="#000000" stroke-dasharray="1,5" points="308,-138 308,-342 1247,-342 1247,-138 308,-138"/>
</g>
<g id="clust9" class="cluster">
<title>cluster_AppModule_declarations</title>
<polygon fill="none" stroke="#000000" points="316,-146 316,-198 438,-198 438,-146 316,-146"/>
</g>
<g id="clust11" class="cluster">
<title>cluster_AppModule_imports</title>
<polygon fill="none" stroke="#000000" points="446,-146 446,-198 1239,-198 1239,-146 446,-146"/>
</g>
<g id="clust13" class="cluster">
<title>cluster_AppModule_bootstrap</title>
<polygon fill="none" stroke="#000000" points="619,-282 619,-334 743,-334 743,-282 619,-282"/>
</g>
<g id="clust15" class="cluster">
<title>cluster_AudioModule</title>
<polygon fill="none" stroke="#000000" stroke-dasharray="1,5" points="1841,-206 1841,-274 2133,-274 2133,-206 1841,-206"/>
</g>
<g id="clust16" class="cluster">
<title>cluster_AudioModule_declarations</title>
<polygon fill="none" stroke="#000000" points="1993,-214 1993,-266 2125,-266 2125,-214 1993,-214"/>
</g>
<g id="clust19" class="cluster">
<title>cluster_AudioModule_exports</title>
<polygon fill="none" stroke="#000000" points="1849,-214 1849,-266 1985,-266 1985,-214 1849,-214"/>
</g>
<g id="clust22" class="cluster">
<title>cluster_ButtonModule</title>
<polygon fill="none" stroke="#000000" stroke-dasharray="1,5" points="1255,-206 1255,-274 1553,-274 1553,-206 1255,-206"/>
</g>
<g id="clust23" class="cluster">
<title>cluster_ButtonModule_declarations</title>
<polygon fill="none" stroke="#000000" points="1409,-214 1409,-266 1545,-266 1545,-214 1409,-214"/>
</g>
<g id="clust26" class="cluster">
<title>cluster_ButtonModule_exports</title>
<polygon fill="none" stroke="#000000" points="1263,-214 1263,-266 1401,-266 1401,-214 1263,-214"/>
</g>
<g id="clust29" class="cluster">
<title>cluster_IconModule</title>
<polygon fill="none" stroke="#000000" stroke-dasharray="1,5" points="1561,-206 1561,-274 1833,-274 1833,-206 1561,-206"/>
</g>
<g id="clust30" class="cluster">
<title>cluster_IconModule_declarations</title>
<polygon fill="none" stroke="#000000" points="1703,-214 1703,-266 1825,-266 1825,-214 1703,-214"/>
</g>
<g id="clust33" class="cluster">
<title>cluster_IconModule_exports</title>
<polygon fill="none" stroke="#000000" points="1569,-214 1569,-266 1695,-266 1695,-214 1569,-214"/>
</g>
<g id="clust36" class="cluster">
<title>cluster_LabelModule</title>
<polygon fill="none" stroke="#000000" stroke-dasharray="1,5" points="2141,-206 2141,-274 2427,-274 2427,-206 2141,-206"/>
</g>
<g id="clust37" class="cluster">
<title>cluster_LabelModule_declarations</title>
<polygon fill="none" stroke="#000000" points="2289,-214 2289,-266 2419,-266 2419,-214 2289,-214"/>
</g>
<g id="clust40" class="cluster">
<title>cluster_LabelModule_exports</title>
<polygon fill="none" stroke="#000000" points="2149,-214 2149,-266 2281,-266 2281,-214 2149,-214"/>
</g>
<g id="clust43" class="cluster">
<title>cluster_PictureModule</title>
<polygon fill="none" stroke="#000000" stroke-dasharray="1,5" points="2435,-206 2435,-274 2735,-274 2735,-206 2435,-206"/>
</g>
<g id="clust44" class="cluster">
<title>cluster_PictureModule_declarations</title>
<polygon fill="none" stroke="#000000" points="2591,-214 2591,-266 2727,-266 2727,-214 2591,-214"/>
</g>
<g id="clust47" class="cluster">
<title>cluster_PictureModule_exports</title>
<polygon fill="none" stroke="#000000" points="2443,-214 2443,-266 2583,-266 2583,-214 2443,-214"/>
</g>
<!-- AnchorComponent -->
<g id="node1" class="node">
<title>AnchorComponent</title>
<polygon fill="#ffffb3" stroke="#000000" points="147.8146,-122 24.1854,-122 24.1854,-86 147.8146,-86 147.8146,-122"/>
<text text-anchor="middle" x="86" y="-99.8" font-family="Times,serif" font-size="14.00" fill="#000000">AnchorComponent</text>
</g>
<!-- AnchorModule -->
<g id="node2" class="node">
<title>AnchorModule</title>
<polygon fill="#8dd3c7" stroke="#000000" points="274.5327,-190 271.5327,-194 250.5327,-194 247.5327,-190 173.4673,-190 173.4673,-154 274.5327,-154 274.5327,-190"/>
<text text-anchor="middle" x="224" y="-167.8" font-family="Times,serif" font-size="14.00" fill="#000000">AnchorModule</text>
</g>
<!-- AnchorComponent&#45;&gt;AnchorModule -->
<g id="edge1" class="edge">
<title>AnchorComponent&#45;&gt;AnchorModule</title>
<path fill="none" stroke="#000000" d="M86,-122.2228C86,-142.3652 86,-172 86,-172 86,-172 163.3975,-172 163.3975,-172"/>
<polygon fill="#000000" stroke="#000000" points="163.3975,-175.5001 173.3975,-172 163.3975,-168.5001 163.3975,-175.5001"/>
</g>
<!-- AnchorComponent  -->
<g id="node4" class="node">
<title>AnchorComponent </title>
<polygon fill="#fb8072" stroke="#000000" points="284.3143,-258 157.6857,-258 157.6857,-222 284.3143,-222 284.3143,-258"/>
<text text-anchor="middle" x="221" y="-235.8" font-family="Times,serif" font-size="14.00" fill="#000000">AnchorComponent </text>
</g>
<!-- AnchorModule&#45;&gt;AnchorComponent  -->
<g id="edge3" class="edge">
<title>AnchorModule&#45;&gt;AnchorComponent </title>
<path fill="none" stroke="#000000" stroke-dasharray="5,2" d="M224,-190.2228C224,-190.2228 224,-211.7269 224,-211.7269"/>
<polygon fill="#000000" stroke="#000000" points="220.5001,-211.7269 224,-221.7269 227.5001,-211.727 220.5001,-211.7269"/>
</g>
<!-- AppModule -->
<g id="node6" class="node">
<title>AppModule</title>
<polygon fill="#8dd3c7" stroke="#000000" points="722.6571,-258 719.6571,-262 698.6571,-262 695.6571,-258 639.3429,-258 639.3429,-222 722.6571,-222 722.6571,-258"/>
<text text-anchor="middle" x="681" y="-235.8" font-family="Times,serif" font-size="14.00" fill="#000000">AppModule</text>
</g>
<!-- AnchorModule&#45;&gt;AppModule -->
<g id="edge8" class="edge">
<title>AnchorModule&#45;&gt;AppModule</title>
<path fill="none" stroke="#000000" d="M274.883,-172C290.8277,-172 304.3438,-172 304.3438,-172 304.3438,-172 304.3438,-251 304.3438,-251 304.3438,-251 629.2521,-251 629.2521,-251"/>
<polygon fill="#000000" stroke="#000000" points="629.2521,-254.5001 639.2521,-251 629.252,-247.5001 629.2521,-254.5001"/>
</g>
<!-- CommonModule -->
<g id="node3" class="node">
<title>CommonModule</title>
<polygon fill="#8dd3c7" stroke="#000000" points="283.6681,-122 280.6681,-126 259.6681,-126 256.6681,-122 172.3319,-122 172.3319,-86 283.6681,-86 283.6681,-122"/>
<text text-anchor="middle" x="228" y="-99.8" font-family="Times,serif" font-size="14.00" fill="#000000">CommonModule</text>
</g>
<!-- CommonModule&#45;&gt;AnchorModule -->
<g id="edge2" class="edge">
<title>CommonModule&#45;&gt;AnchorModule</title>
<path fill="none" stroke="#000000" d="M224,-122.2228C224,-122.2228 224,-143.7269 224,-143.7269"/>
<polygon fill="#000000" stroke="#000000" points="220.5001,-143.7269 224,-153.7269 227.5001,-143.727 220.5001,-143.7269"/>
</g>
<!-- ButtonModule -->
<g id="node9" class="node">
<title>ButtonModule</title>
<polygon fill="#8dd3c7" stroke="#000000" points="789.6682,-190 786.6682,-194 765.6682,-194 762.6682,-190 692.3318,-190 692.3318,-154 789.6682,-154 789.6682,-190"/>
<text text-anchor="middle" x="741" y="-167.8" font-family="Times,serif" font-size="14.00" fill="#000000">ButtonModule</text>
</g>
<!-- CommonModule&#45;&gt;ButtonModule -->
<g id="edge19" class="edge">
<title>CommonModule&#45;&gt;ButtonModule</title>
<path fill="none" stroke="#000000" d="M283.8766,-116C416.8349,-116 741,-116 741,-116 741,-116 741,-143.973 741,-143.973"/>
<polygon fill="#000000" stroke="#000000" points="737.5001,-143.973 741,-153.973 744.5001,-143.973 737.5001,-143.973"/>
</g>
<!-- IconModule -->
<g id="node10" class="node">
<title>IconModule</title>
<polygon fill="#8dd3c7" stroke="#000000" points="892.4261,-190 889.4261,-194 868.4261,-194 865.4261,-190 807.5739,-190 807.5739,-154 892.4261,-154 892.4261,-190"/>
<text text-anchor="middle" x="850" y="-167.8" font-family="Times,serif" font-size="14.00" fill="#000000">IconModule</text>
</g>
<!-- CommonModule&#45;&gt;IconModule -->
<g id="edge22" class="edge">
<title>CommonModule&#45;&gt;IconModule</title>
<path fill="none" stroke="#000000" d="M283.7457,-110C436.4163,-110 850,-110 850,-110 850,-110 850,-143.7333 850,-143.7333"/>
<polygon fill="#000000" stroke="#000000" points="846.5001,-143.7333 850,-153.7333 853.5001,-143.7333 846.5001,-143.7333"/>
</g>
<!-- AudioModule -->
<g id="node11" class="node">
<title>AudioModule</title>
<polygon fill="#8dd3c7" stroke="#000000" points="1004.0481,-190 1001.0481,-194 980.0481,-194 977.0481,-190 909.9519,-190 909.9519,-154 1004.0481,-154 1004.0481,-190"/>
<text text-anchor="middle" x="957" y="-167.8" font-family="Times,serif" font-size="14.00" fill="#000000">AudioModule</text>
</g>
<!-- CommonModule&#45;&gt;AudioModule -->
<g id="edge16" class="edge">
<title>CommonModule&#45;&gt;AudioModule</title>
<path fill="none" stroke="#000000" d="M283.692,-104C454.1062,-104 957,-104 957,-104 957,-104 957,-143.7772 957,-143.7772"/>
<polygon fill="#000000" stroke="#000000" points="953.5001,-143.7772 957,-153.7772 960.5001,-143.7773 953.5001,-143.7772"/>
</g>
<!-- LabelModule -->
<g id="node12" class="node">
<title>LabelModule</title>
<polygon fill="#8dd3c7" stroke="#000000" points="1113.9232,-190 1110.9232,-194 1089.9232,-194 1086.9232,-190 1022.0768,-190 1022.0768,-154 1113.9232,-154 1113.9232,-190"/>
<text text-anchor="middle" x="1068" y="-167.8" font-family="Times,serif" font-size="14.00" fill="#000000">LabelModule</text>
</g>
<!-- CommonModule&#45;&gt;LabelModule -->
<g id="edge25" class="edge">
<title>CommonModule&#45;&gt;LabelModule</title>
<path fill="none" stroke="#000000" d="M283.7653,-98C471.3757,-98 1068,-98 1068,-98 1068,-98 1068,-143.7079 1068,-143.7079"/>
<polygon fill="#000000" stroke="#000000" points="1064.5001,-143.7078 1068,-153.7079 1071.5001,-143.7079 1064.5001,-143.7078"/>
</g>
<!-- PictureModule -->
<g id="node13" class="node">
<title>PictureModule</title>
<polygon fill="#8dd3c7" stroke="#000000" points="1230.7036,-190 1227.7036,-194 1206.7036,-194 1203.7036,-190 1131.2964,-190 1131.2964,-154 1230.7036,-154 1230.7036,-190"/>
<text text-anchor="middle" x="1181" y="-167.8" font-family="Times,serif" font-size="14.00" fill="#000000">PictureModule</text>
</g>
<!-- CommonModule&#45;&gt;PictureModule -->
<g id="edge28" class="edge">
<title>CommonModule&#45;&gt;PictureModule</title>
<path fill="none" stroke="#000000" d="M283.7061,-92C487.5442,-92 1181,-92 1181,-92 1181,-92 1181,-143.8468 1181,-143.8468"/>
<polygon fill="#000000" stroke="#000000" points="1177.5001,-143.8467 1181,-153.8468 1184.5001,-143.8468 1177.5001,-143.8467"/>
</g>
<!-- AppComponent -->
<g id="node5" class="node">
<title>AppComponent</title>
<polygon fill="#ffffb3" stroke="#000000" points="429.9399,-190 324.0601,-190 324.0601,-154 429.9399,-154 429.9399,-190"/>
<text text-anchor="middle" x="377" y="-167.8" font-family="Times,serif" font-size="14.00" fill="#000000">AppComponent</text>
</g>
<!-- AppComponent&#45;&gt;AppModule -->
<g id="edge4" class="edge">
<title>AppComponent&#45;&gt;AppModule</title>
<path fill="none" stroke="#000000" d="M377,-190.1686C377,-211.498 377,-244 377,-244 377,-244 629.0493,-244 629.0493,-244"/>
<polygon fill="#000000" stroke="#000000" points="629.0493,-247.5001 639.0493,-244 629.0492,-240.5001 629.0493,-247.5001"/>
</g>
<!-- AppComponent  -->
<g id="node14" class="node">
<title>AppComponent </title>
<polygon fill="#80b1d3" stroke="#000000" points="735.439,-326 626.561,-326 626.561,-290 735.439,-290 735.439,-326"/>
<text text-anchor="middle" x="681" y="-303.8" font-family="Times,serif" font-size="14.00" fill="#000000">AppComponent </text>
</g>
<!-- AppModule&#45;&gt;AppComponent  -->
<g id="edge14" class="edge">
<title>AppModule&#45;&gt;AppComponent </title>
<path fill="none" stroke="#000000" stroke-dasharray="1,5" d="M681,-258.2228C681,-258.2228 681,-279.7269 681,-279.7269"/>
<polygon fill="#000000" stroke="#000000" points="677.5001,-279.7269 681,-289.7269 684.5001,-279.727 677.5001,-279.7269"/>
</g>
<!-- BrowserModule -->
<g id="node7" class="node">
<title>BrowserModule</title>
<polygon fill="#8dd3c7" stroke="#000000" points="674.4734,-190 671.4734,-194 650.4734,-194 647.4734,-190 567.5266,-190 567.5266,-154 674.4734,-154 674.4734,-190"/>
<text text-anchor="middle" x="621" y="-167.8" font-family="Times,serif" font-size="14.00" fill="#000000">BrowserModule</text>
</g>
<!-- BrowserModule&#45;&gt;AppModule -->
<g id="edge5" class="edge">
<title>BrowserModule&#45;&gt;AppModule</title>
<path fill="none" stroke="#000000" d="M656.8293,-190.2228C656.8293,-190.2228 656.8293,-211.7269 656.8293,-211.7269"/>
<polygon fill="#000000" stroke="#000000" points="653.3293,-211.7269 656.8293,-221.7269 660.3293,-211.727 653.3293,-211.7269"/>
</g>
<!-- FormsModule -->
<g id="node8" class="node">
<title>FormsModule</title>
<polygon fill="#8dd3c7" stroke="#000000" points="549.8288,-190 546.8288,-194 525.8288,-194 522.8288,-190 454.1712,-190 454.1712,-154 549.8288,-154 549.8288,-190"/>
<text text-anchor="middle" x="502" y="-167.8" font-family="Times,serif" font-size="14.00" fill="#000000">FormsModule</text>
</g>
<!-- FormsModule&#45;&gt;AppModule -->
<g id="edge6" class="edge">
<title>FormsModule&#45;&gt;AppModule</title>
<path fill="none" stroke="#000000" d="M486.112,-190.1061C486.112,-209.3391 486.112,-237 486.112,-237 486.112,-237 629.1916,-237 629.1916,-237"/>
<polygon fill="#000000" stroke="#000000" points="629.1917,-240.5001 639.1916,-237 629.1916,-233.5001 629.1917,-240.5001"/>
</g>
<!-- FormsModule&#45;&gt;AppModule -->
<g id="edge10" class="edge">
<title>FormsModule&#45;&gt;AppModule</title>
<path fill="none" stroke="#000000" d="M517.888,-190.0336C517.888,-207.0597 517.888,-230 517.888,-230 517.888,-230 628.9946,-230 628.9946,-230"/>
<polygon fill="#000000" stroke="#000000" points="628.9947,-233.5001 638.9946,-230 628.9946,-226.5001 628.9947,-233.5001"/>
</g>
<!-- ButtonModule&#45;&gt;AppModule -->
<g id="edge7" class="edge">
<title>ButtonModule&#45;&gt;AppModule</title>
<path fill="none" stroke="#000000" d="M707.4972,-190.2228C707.4972,-190.2228 707.4972,-211.7269 707.4972,-211.7269"/>
<polygon fill="#000000" stroke="#000000" points="703.9973,-211.7269 707.4972,-221.7269 710.9973,-211.727 703.9973,-211.7269"/>
</g>
<!-- ButtonComponent  -->
<g id="node18" class="node">
<title>ButtonComponent </title>
<polygon fill="#fb8072" stroke="#000000" points="1393.4502,-258 1270.5498,-258 1270.5498,-222 1393.4502,-222 1393.4502,-258"/>
<text text-anchor="middle" x="1332" y="-235.8" font-family="Times,serif" font-size="14.00" fill="#000000">ButtonComponent </text>
</g>
<!-- ButtonModule&#45;&gt;ButtonComponent  -->
<g id="edge20" class="edge">
<title>ButtonModule&#45;&gt;ButtonComponent </title>
<path fill="none" stroke="#000000" stroke-dasharray="5,2" d="M771.7124,-190.027C771.7124,-206.3976 771.7124,-228 771.7124,-228 771.7124,-228 1260.4367,-228 1260.4367,-228"/>
<polygon fill="#000000" stroke="#000000" points="1260.4367,-231.5001 1270.4367,-228 1260.4367,-224.5001 1260.4367,-231.5001"/>
</g>
<!-- IconModule&#45;&gt;AppModule -->
<g id="edge9" class="edge">
<title>IconModule&#45;&gt;AppModule</title>
<path fill="none" stroke="#000000" d="M871.1063,-190.2667C871.1063,-208.5552 871.1063,-234 871.1063,-234 871.1063,-234 732.7196,-234 732.7196,-234"/>
<polygon fill="#000000" stroke="#000000" points="732.7197,-230.5001 722.7196,-234 732.7196,-237.5001 732.7197,-230.5001"/>
</g>
<!-- IconComponent  -->
<g id="node20" class="node">
<title>IconComponent </title>
<polygon fill="#fb8072" stroke="#000000" points="1686.708,-258 1577.292,-258 1577.292,-222 1686.708,-222 1686.708,-258"/>
<text text-anchor="middle" x="1632" y="-235.8" font-family="Times,serif" font-size="14.00" fill="#000000">IconComponent </text>
</g>
<!-- IconModule&#45;&gt;IconComponent  -->
<g id="edge23" class="edge">
<title>IconModule&#45;&gt;IconComponent </title>
<path fill="none" stroke="#000000" stroke-dasharray="5,2" d="M850,-190.0555C850,-201.439 850,-214 850,-214 850,-214 1632,-214 1632,-214 1632,-214 1632,-214.7942 1632,-214.7942"/>
<polygon fill="#000000" stroke="#000000" points="1628.5001,-211.9421 1632,-221.9421 1635.5001,-211.9422 1628.5001,-211.9421"/>
</g>
<!-- AudioModule&#45;&gt;AppModule -->
<g id="edge11" class="edge">
<title>AudioModule&#45;&gt;AppModule</title>
<path fill="none" stroke="#000000" d="M980.6368,-190.2228C980.6368,-210.3652 980.6368,-240 980.6368,-240 980.6368,-240 732.6632,-240 732.6632,-240"/>
<polygon fill="#000000" stroke="#000000" points="732.6632,-236.5001 722.6632,-240 732.6632,-243.5001 732.6632,-236.5001"/>
</g>
<!-- AudioComponent  -->
<g id="node16" class="node">
<title>AudioComponent </title>
<polygon fill="#fb8072" stroke="#000000" points="1976.8297,-258 1857.1703,-258 1857.1703,-222 1976.8297,-222 1976.8297,-258"/>
<text text-anchor="middle" x="1917" y="-235.8" font-family="Times,serif" font-size="14.00" fill="#000000">AudioComponent </text>
</g>
<!-- AudioModule&#45;&gt;AudioComponent  -->
<g id="edge17" class="edge">
<title>AudioModule&#45;&gt;AudioComponent </title>
<path fill="none" stroke="#000000" stroke-dasharray="5,2" d="M957,-190.1944C957,-198.2782 957,-206 957,-206 957,-206 1917,-206 1917,-206 1917,-206 1917,-211.8056 1917,-211.8056"/>
<polygon fill="#000000" stroke="#000000" points="1913.5001,-211.8055 1917,-221.8056 1920.5001,-211.8056 1913.5001,-211.8055"/>
</g>
<!-- LabelModule&#45;&gt;AppModule -->
<g id="edge12" class="edge">
<title>LabelModule&#45;&gt;AppModule</title>
<path fill="none" stroke="#000000" d="M1090.8556,-190.2921C1090.8556,-212.2057 1090.8556,-246 1090.8556,-246 1090.8556,-246 732.9356,-246 732.9356,-246"/>
<polygon fill="#000000" stroke="#000000" points="732.9357,-242.5001 722.9356,-246 732.9356,-249.5001 732.9357,-242.5001"/>
</g>
<!-- LabelComponent  -->
<g id="node22" class="node">
<title>LabelComponent </title>
<polygon fill="#fb8072" stroke="#000000" points="2273.2052,-258 2156.7948,-258 2156.7948,-222 2273.2052,-222 2273.2052,-258"/>
<text text-anchor="middle" x="2215" y="-235.8" font-family="Times,serif" font-size="14.00" fill="#000000">LabelComponent </text>
</g>
<!-- LabelModule&#45;&gt;LabelComponent  -->
<g id="edge26" class="edge">
<title>LabelModule&#45;&gt;LabelComponent </title>
<path fill="none" stroke="#000000" stroke-dasharray="5,2" d="M1068,-190.0579C1068,-194.4945 1068,-198 1068,-198 1068,-198 2215,-198 2215,-198 2215,-198 2215,-211.9445 2215,-211.9445"/>
<polygon fill="#000000" stroke="#000000" points="2211.5001,-211.9444 2215,-221.9445 2218.5001,-211.9445 2211.5001,-211.9444"/>
</g>
<!-- PictureModule&#45;&gt;AppModule -->
<g id="edge13" class="edge">
<title>PictureModule&#45;&gt;AppModule</title>
<path fill="none" stroke="#000000" d="M1181,-190.1532C1181,-213.7566 1181,-252 1181,-252 1181,-252 732.7697,-252 732.7697,-252"/>
<polygon fill="#000000" stroke="#000000" points="732.7698,-248.5001 722.7697,-252 732.7697,-255.5001 732.7698,-248.5001"/>
</g>
<!-- PictureComponent  -->
<g id="node24" class="node">
<title>PictureComponent </title>
<polygon fill="#fb8072" stroke="#000000" points="2575.487,-258 2450.513,-258 2450.513,-222 2575.487,-222 2575.487,-258"/>
<text text-anchor="middle" x="2513" y="-235.8" font-family="Times,serif" font-size="14.00" fill="#000000">PictureComponent </text>
</g>
<!-- PictureModule&#45;&gt;PictureComponent  -->
<g id="edge29" class="edge">
<title>PictureModule&#45;&gt;PictureComponent </title>
<path fill="none" stroke="#000000" stroke-dasharray="5,2" d="M1230.785,-178C1472.5973,-178 2513,-178 2513,-178 2513,-178 2513,-211.7333 2513,-211.7333"/>
<polygon fill="#000000" stroke="#000000" points="2509.5001,-211.7333 2513,-221.7333 2516.5001,-211.7333 2509.5001,-211.7333"/>
</g>
<!-- AudioComponent -->
<g id="node15" class="node">
<title>AudioComponent</title>
<polygon fill="#ffffb3" stroke="#000000" points="2117.3301,-258 2000.6699,-258 2000.6699,-222 2117.3301,-222 2117.3301,-258"/>
<text text-anchor="middle" x="2059" y="-235.8" font-family="Times,serif" font-size="14.00" fill="#000000">AudioComponent</text>
</g>
<!-- AudioComponent&#45;&gt;AudioModule -->
<g id="edge15" class="edge">
<title>AudioComponent&#45;&gt;AudioModule</title>
<path fill="none" stroke="#000000" d="M2059,-221.8903C2059,-212.103 2059,-202 2059,-202 2059,-202 933.3633,-202 933.3633,-202 933.3633,-202 933.3633,-200.1432 933.3633,-200.1432"/>
<polygon fill="#000000" stroke="#000000" points="936.8633,-200.1432 933.3633,-190.1432 929.8633,-200.1432 936.8633,-200.1432"/>
</g>
<!-- ButtonComponent -->
<g id="node17" class="node">
<title>ButtonComponent</title>
<polygon fill="#ffffb3" stroke="#000000" points="1536.9511,-258 1417.0489,-258 1417.0489,-222 1536.9511,-222 1536.9511,-258"/>
<text text-anchor="middle" x="1477" y="-235.8" font-family="Times,serif" font-size="14.00" fill="#000000">ButtonComponent</text>
</g>
<!-- ButtonComponent&#45;&gt;ButtonModule -->
<g id="edge18" class="edge">
<title>ButtonComponent&#45;&gt;ButtonModule</title>
<path fill="none" stroke="#000000" d="M1477,-221.8321C1477,-219.5522 1477,-218 1477,-218 1477,-218 753.5909,-218 753.5909,-218 753.5909,-218 753.5909,-200.1804 753.5909,-200.1804"/>
<polygon fill="#000000" stroke="#000000" points="757.091,-200.1804 753.5909,-190.1804 750.091,-200.1805 757.091,-200.1804"/>
</g>
<!-- IconComponent -->
<g id="node19" class="node">
<title>IconComponent</title>
<polygon fill="#ffffb3" stroke="#000000" points="1817.2078,-258 1710.7922,-258 1710.7922,-222 1817.2078,-222 1817.2078,-258"/>
<text text-anchor="middle" x="1764" y="-235.8" font-family="Times,serif" font-size="14.00" fill="#000000">IconComponent</text>
</g>
<!-- IconComponent&#45;&gt;IconModule -->
<g id="edge21" class="edge">
<title>IconComponent&#45;&gt;IconModule</title>
<path fill="none" stroke="#000000" d="M1764,-221.8568C1764,-215.5389 1764,-210 1764,-210 1764,-210 828.8938,-210 828.8938,-210 828.8938,-210 828.8938,-200.1097 828.8938,-200.1097"/>
<polygon fill="#000000" stroke="#000000" points="832.3938,-200.1096 828.8938,-190.1097 825.3938,-200.1097 832.3938,-200.1096"/>
</g>
<!-- LabelComponent -->
<g id="node21" class="node">
<title>LabelComponent</title>
<polygon fill="#ffffb3" stroke="#000000" points="2410.705,-258 2297.295,-258 2297.295,-222 2410.705,-222 2410.705,-258"/>
<text text-anchor="middle" x="2354" y="-235.8" font-family="Times,serif" font-size="14.00" fill="#000000">LabelComponent</text>
</g>
<!-- LabelComponent&#45;&gt;LabelModule -->
<g id="edge24" class="edge">
<title>LabelComponent&#45;&gt;LabelModule</title>
<path fill="none" stroke="#000000" d="M2354,-221.8196C2354,-208.9618 2354,-194 2354,-194 2354,-194 1045.1445,-194 1045.1445,-194 1045.1445,-194 1045.1445,-193.6168 1045.1445,-193.6168"/>
<polygon fill="#000000" stroke="#000000" points="1048.6447,-200.1678 1045.1445,-190.1679 1041.6447,-200.168 1048.6447,-200.1678"/>
</g>
<!-- PictureComponent -->
<g id="node23" class="node">
<title>PictureComponent</title>
<polygon fill="#ffffb3" stroke="#000000" points="2719.486,-258 2598.514,-258 2598.514,-222 2719.486,-222 2719.486,-258"/>
<text text-anchor="middle" x="2659" y="-235.8" font-family="Times,serif" font-size="14.00" fill="#000000">PictureComponent</text>
</g>
<!-- PictureComponent&#45;&gt;PictureModule -->
<g id="edge27" class="edge">
<title>PictureComponent&#45;&gt;PictureModule</title>
<path fill="none" stroke="#000000" d="M2659,-221.7079C2659,-199.7943 2659,-166 2659,-166 2659,-166 1241.0226,-166 1241.0226,-166"/>
<polygon fill="#000000" stroke="#000000" points="1241.0226,-162.5001 1231.0226,-166 1241.0226,-169.5001 1241.0226,-162.5001"/>
</g>
</g>
</svg>
